<?xml version="1.0" encoding="utf-8"?>
<!-- Generator: Adobe Illustrator 18.1.1, SVG Export Plug-In . SVG Version: 6.00 Build 0)  -->
<svg version="1.1" id="Layer_1" xmlns="http://www.w3.org/2000/svg" xmlns:xlink="http://www.w3.org/1999/xlink" x="0px" y="0px"
	 viewBox="57.4 -70.3 264.2 213.4" enable-background="new 57.4 -70.3 264.2 213.4" xml:space="preserve">
<g id="XMLID_1_">
	<g id="XMLID_172_">
		<g id="XMLID_196_">
			<path id="XMLID_197_" fill="#CACDD6" d="M294.6-12.9c0.4-0.1,0.6-0.4,0.6-0.7c0.1-0.7,0.1-2.8,0.1-2.8c0-0.5-1.4-0.6-1.4,0.1
				c0,0.1-0.2,1.8,0,2.7C294-13.1,294.2-12.8,294.6-12.9z"/>
		</g>
		<g id="XMLID_194_">
			<path id="XMLID_195_" fill="#CACDD6" d="M294.1-5.9c0.4-0.1,0.6-0.3,0.7-0.7c0.2-0.7,0.4-2.7,0.4-2.8c0-0.5-1.3-0.8-1.4,0
				c0,0.1-0.4,1.8-0.3,2.7C293.6-6.2,293.7-5.8,294.1-5.9z"/>
		</g>
		<g id="XMLID_192_">
			<path id="XMLID_193_" fill="#CACDD6" d="M293,1c0.4,0,0.6-0.3,0.8-0.6c0.3-0.7,0.6-2.7,0.6-2.8c0.1-0.5-1.3-0.9-1.4-0.2
				c0,0.1-0.5,1.7-0.5,2.7C292.5,0.7,292.7,1.1,293,1z"/>
		</g>
		<g id="XMLID_190_">
			<path id="XMLID_191_" fill="#CACDD6" d="M291.3,7.8c0.4,0,0.6-0.2,0.8-0.5c0.3-0.7,0.8-2.6,0.9-2.7c0.1-0.5-1.2-1-1.4-0.3
				c0,0.1-0.7,1.7-0.8,2.6C290.9,7.4,291,7.8,291.3,7.8z"/>
		</g>
		<g id="XMLID_188_">
			<path id="XMLID_189_" fill="#CACDD6" d="M288.9,14.4c0.4,0,0.7-0.2,0.9-0.4c0.4-0.6,1.1-2.5,1.1-2.6c0.2-0.5-1.1-1.1-1.3-0.4
				c0,0.1-0.9,1.6-1.1,2.5C288.5,13.9,288.6,14.4,288.9,14.4z"/>
		</g>
		<g id="XMLID_186_">
			<path id="XMLID_187_" fill="#CACDD6" d="M285.8,20.7c0.4,0.1,0.7-0.1,0.9-0.3c0.5-0.6,1.4-2.4,1.4-2.5c0.2-0.4-0.9-1.2-1.3-0.6
				c0,0.1-1,1.5-1.3,2.4C285.4,20.1,285.5,20.6,285.8,20.7z"/>
		</g>
		<g id="XMLID_184_">
			<path id="XMLID_185_" fill="#CACDD6" d="M281.9,26.5c0.4,0.1,0.7,0,0.9-0.2c0.5-0.5,1.7-2.2,1.7-2.3c0.3-0.4-0.8-1.3-1.2-0.7
				c0,0.1-1.2,1.3-1.6,2.2C281.6,25.9,281.6,26.4,281.9,26.5z"/>
		</g>
		<g id="XMLID_182_">
			<path id="XMLID_183_" fill="#CACDD6" d="M277.4,31.8c0.3,0.2,0.7,0.1,1-0.1c0.6-0.4,1.9-2,2-2c0.3-0.4-0.6-1.4-1.1-0.9
				c-0.1,0.1-1.4,1.2-1.9,2C277.2,31.2,277.1,31.6,277.4,31.8z"/>
		</g>
		<g id="XMLID_178_">
			<path id="XMLID_180_" fill="#CACDD6" d="M272.2,36.5c0.3,0.2,0.7,0.2,1,0c0.6-0.4,2.1-1.7,2.2-1.8c0.4-0.3-0.5-1.5-1-1
				c0,0.1-1.5,1-2.1,1.8C272.1,35.9,271.9,36.3,272.2,36.5z"/>
		</g>
		<g id="XMLID_176_">
			<path id="XMLID_177_" fill="#CACDD6" d="M266.6,40.7c0.3,0.2,0.6,0.2,1,0.1c0.7-0.3,2.3-1.5,2.4-1.6c0.4-0.3-0.3-1.5-0.9-1.1
				c-0.1,0-1.6,0.8-2.3,1.6C266.5,40.1,266.4,40.5,266.6,40.7z"/>
		</g>
		<g id="XMLID_174_">
			<path id="XMLID_175_" fill="#CACDD6" d="M261.6,43.8c0.3,0.3,0.5,0.3,0.8,0.3c0.5-0.2,1.8-0.9,1.9-1c0.3-0.2-0.3-1.4-0.8-1.2
				c0,0-1.2,0.5-1.8,1C261.5,43.3,261.4,43.6,261.6,43.8z"/>
		</g>
	</g>
	<g>
		<g id="XMLID_169_">
			<circle id="XMLID_170_" fill="#FFFFFF" cx="294.9" cy="-26.8" r="13.7"/>
			<path id="XMLID_171_" fill="#505A78" d="M309.1-27.2c0-0.2,0-0.4,0-0.6c0-0.5-0.1-0.9-0.1-1.4c0-0.5-0.2-0.9-0.3-1.3
				c-0.1-0.4-0.2-0.9-0.4-1.3c-0.6-1.6-1.3-2.9-1.8-3.5c-0.9-1.2-1.9-2.3-3-3.1c-1.1-0.9-2.4-1.6-3.7-2c-1.4-0.5-2.8-0.8-4.2-0.8
				c-1.4-0.1-2.9,0-4.2,0.4c-1.4,0.3-2.6,0.9-3.9,1.7c-1.2,0.7-2.3,1.7-3.3,2.8c-1.5,1.6-2.9,3.5-3.5,5.8c-0.6,2.2-0.5,4.6-0.1,6.8
				c0.5,2.2,1.5,4.3,2.9,6.1c1.4,1.8,3.1,3.2,5.1,4.2c1,0.5,2.2,0.8,3.4,1.1c1.2,0.2,2.6,0.3,3.8,0.2c2.6-0.2,5-1.1,6.8-2.3
				c0.6-0.4,1.6-1.1,2.6-2.2c1-1,2-2.4,2.6-4c0.7-1.6,1.1-3.5,1.1-4.9c0-0.5,0-0.8,0-1.1H308c0,0.2,0,0.5-0.1,1
				c0,0.7-0.2,1.6-0.5,2.6c-0.3,1-0.8,2.2-1.4,3.2c-1,1.7-2.5,3.1-3.7,4c-1.3,0.9-2.3,1.3-2.7,1.4c-2.2,0.8-4.5,1.1-6.6,0.8
				c-1.1-0.1-2.2-0.5-3.3-0.9c-1-0.5-2-1-2.9-1.7c-1.8-1.3-3.2-3.1-4.1-5.2c-0.8-2-1.1-4.3-0.7-6.6c0.2-1.2,0.5-2.3,0.9-3.5
				c0.5-1.1,1.1-2.1,1.9-3.1c1.5-1.8,3.6-3.2,5.9-4c1.1-0.4,2.3-0.7,3.5-0.8c1.2-0.1,2.4,0,3.6,0.2c2.4,0.5,4.4,2,6.1,3.7
				c0.8,0.8,2.2,2.1,3.2,5.1c0.3,1,0.6,2,0.7,3c0.1,0.3,0.1,0.6,0.2,0.9h1.1L309.1-27.2z"/>
		</g>
		<g id="XMLID_167_">
			<path id="XMLID_133_" fill="#99CBF5" d="M295-25.6c3.6,0,7,1.3,9.1,4c0.4,0.5,0.6,0.9,1.1,0c0.8-1.6,1.1-3.6,1-5.6
				c-0.4-5.7-4.9-10.4-10.4-10.7c-6.5-0.4-11.9,4.9-11.9,11.5c0,1.7,0.4,3.4,1,4.8c0.2,0.5,0.7,0.4,1.1-0.1
				C288-24.3,291.4-25.6,295-25.6z"/>
			<path id="XMLID_163_" fill="#99CBF5" d="M304.7-20.9c-0.3,0-0.5-0.3-0.7-0.5l0-0.1c-1.9-2.5-5.2-3.8-8.9-3.8
				c-3.8,0-7,1.4-8.9,3.8c-0.3,0.4-0.6,0.5-0.9,0.5c-0.2,0-0.4-0.1-0.6-0.5c-0.7-1.5-1.1-3.2-1.1-4.9c0-3.3,1.4-6.5,3.8-8.7
				c2.3-2.2,5.3-3.2,8.4-3c5.7,0.4,10.3,5.1,10.7,11c0.1,2.2-0.2,4.2-1,5.7C305.2-21.2,305-20.9,304.7-20.9
				C304.7-20.9,304.7-20.9,304.7-20.9z M295-25.8c3.9,0,7.2,1.5,9.2,4l0.1,0.1c0.1,0.1,0.3,0.4,0.4,0.4c0,0,0.1,0,0.3-0.4
				c0.8-1.5,1.1-3.4,1-5.5c-0.4-5.6-4.7-10.2-10.2-10.5c-3-0.2-5.9,0.8-8.1,2.9c-2.3,2.1-3.6,5.2-3.6,8.4c0,1.7,0.3,3.2,1,4.7
				c0,0.1,0.1,0.2,0.2,0.2c0.1,0,0.2-0.1,0.5-0.3C287.7-24.4,291.1-25.8,295-25.8z"/>
		</g>
		<path id="XMLID_165_" fill="#505A78" d="M304.8-21.2c0.1-0.3-1-1.8-1.9-2.4c-0.1-0.1-0.1-0.1-0.2-0.2c-0.5-0.4-1.1-0.8-1.4-1
			c-0.5-0.3-1-0.6-1.5-0.8c-0.5-0.2-1.1-0.4-1.6-0.5c-0.5-0.1-1.1-0.1-1.7-0.2c-0.4-0.1-0.9-0.3-1.3-0.3c-0.4,0-0.9,0.1-1.3,0.2
			c-0.4,0-0.9,0.1-1.3,0.2c-0.4,0.1-0.9,0.1-1.3,0.2c-0.4,0.1-0.9,0.3-1.4,0.5c-0.5,0.2-0.9,0.4-1.3,0.6c-0.2,0.2-0.8,0.4-1.4,0.8
			c-0.2,0.2-0.4,0.3-0.5,0.5c-0.5,0.5-0.9,0.8-1.1,1.1c-0.9,0.9-0.8,1.6,0.5,0.3c0.2-0.2,0.6-0.4,1.1-0.7c0.3-0.1,0.6-0.3,0.9-0.5
			c0.7-0.4,1.4-0.7,1.5-0.8c0.4-0.2,0.9-0.3,1.3-0.5c0.4-0.2,0.9-0.2,1.3-0.3c0.4-0.1,0.9-0.2,1.3-0.3c0.4,0,0.9,0,1.4,0.1
			c0.5,0,1,0,1.5,0.1c0.5,0.1,1,0.2,1.4,0.3c0.5,0.1,1,0.1,1.4,0.3c0.5,0.2,0.8,0.5,1.3,0.7c0.2,0.1,0.6,0.2,1.1,0.5
			c0.2,0.1,0.4,0.2,0.6,0.2c0.2,0.1,0.6,0.3,0.8,0.4C303.9-22.1,304.8-21,304.8-21.2z"/>
		<g id="XMLID_138_">
			<circle id="XMLID_144_" fill="#FFFFFF" cx="294.9" cy="-31.5" r="3.2"/>
			<path id="XMLID_146_" fill="#505A78" d="M298.4-31.8c0-0.2,0-0.3,0-0.4c-0.1-0.8-0.6-1.5-0.8-1.8c-0.5-0.5-1.1-1-1.8-1.2
				c-0.7-0.2-1.4-0.2-2.1,0c-0.7,0.2-1.2,0.7-1.7,1.2c-0.4,0.4-0.8,0.8-1,1.4c-0.2,0.6,0,1.2,0.1,1.7c0.1,0.6,0.4,1.1,0.7,1.5
				c0.3,0.5,0.7,0.9,1.2,1.2c0.5,0.3,1.2,0.4,1.8,0.4c0.6,0,1.3-0.2,1.7-0.4c0.3-0.2,1-0.6,1.5-1.3c0.2-0.4,0.4-0.8,0.4-1.2
				c0.1-0.4,0.1-0.7,0.1-0.9h-0.8c0,0.1,0,0.3-0.1,0.7c-0.1,0.2-0.2,0.7-0.6,1.1c-0.5,0.6-1.3,0.9-1.4,0.9c-0.5,0.1-0.9,0.1-1.3,0
				c-0.5-0.1-0.8-0.3-1.2-0.6c-0.3-0.3-0.6-0.6-0.8-1.1c-0.1-0.4-0.1-0.9,0-1.3c0.1-0.4,0.2-0.9,0.5-1.3c0.3-0.4,0.7-0.6,1.1-0.8
				c0.4-0.2,0.9-0.4,1.4-0.3c0.5,0.1,0.8,0.5,1.1,0.7c0.1,0.1,0.5,0.3,0.8,0.8c0.1,0.2,0.2,0.3,0.3,0.5c0.1,0.2,0.1,0.4,0.1,0.6h0.8
				C298.4-31.6,298.4-31.7,298.4-31.8z"/>
		</g>
	</g>
	<g id="XMLID_137_">
		<g id="XMLID_161_">
			<path id="XMLID_162_" fill="#CACDD6" d="M219.3,61c0.3-0.2,0.4-0.5,0.5-0.9c0-0.7-0.6-2.7-0.6-2.8c-0.1-0.5-1.5-0.3-1.3,0.4
				c0,0.1,0.2,1.8,0.6,2.7C218.7,60.9,219,61.2,219.3,61z"/>
		</g>
		<g id="XMLID_159_">
			<path id="XMLID_160_" fill="#CACDD6" d="M220.5,67.9c0.4-0.2,0.5-0.5,0.6-0.8c0.1-0.7-0.3-2.7-0.3-2.8c-0.1-0.5-1.5-0.4-1.4,0.3
				c0,0.1,0.1,1.8,0.4,2.7C219.9,67.8,220.2,68.1,220.5,67.9z"/>
		</g>
		<g id="XMLID_157_">
			<path id="XMLID_158_" fill="#CACDD6" d="M221.1,74.9c0.4-0.1,0.5-0.4,0.6-0.8c0.1-0.7-0.1-2.8-0.1-2.9c0-0.5-1.4-0.6-1.4,0.2
				c0,0.1-0.1,1.8,0.1,2.7C220.5,74.7,220.8,75,221.1,74.9z"/>
		</g>
		<g id="XMLID_155_">
			<path id="XMLID_156_" fill="#CACDD6" d="M221.1,81.9c0.4-0.1,0.6-0.4,0.7-0.7c0.2-0.7,0.2-2.8,0.2-2.9c0-0.5-1.4-0.7-1.4,0.1
				c0,0.1-0.3,1.8-0.1,2.7C220.5,81.6,220.7,82,221.1,81.9z"/>
		</g>
		<g id="XMLID_153_">
			<path id="XMLID_154_" fill="#CACDD6" d="M220.3,88.9c0.4-0.1,0.6-0.3,0.8-0.6c0.2-0.7,0.5-2.7,0.5-2.8c0.1-0.5-1.3-0.8-1.4-0.1
				c0,0.1-0.5,1.7-0.4,2.7C219.8,88.5,219.9,88.9,220.3,88.9z"/>
		</g>
		<g id="XMLID_151_">
			<path id="XMLID_152_" fill="#CACDD6" d="M218.7,95.7c0.4,0,0.6-0.2,0.8-0.5c0.3-0.7,0.8-2.6,0.8-2.7c0.1-0.5-1.2-1-1.4-0.3
				c0,0.1-0.7,1.7-0.7,2.6C218.3,95.3,218.4,95.7,218.7,95.7z"/>
		</g>
		<g id="XMLID_149_">
			<path id="XMLID_150_" fill="#CACDD6" d="M216.4,102.3c0.4,0,0.7-0.1,0.9-0.4c0.4-0.6,1.1-2.5,1.1-2.6c0.2-0.5-1.1-1.1-1.3-0.4
				c0,0.1-0.9,1.6-1.1,2.5C215.9,101.8,216,102.2,216.4,102.3z"/>
		</g>
		<g id="XMLID_147_">
			<path id="XMLID_148_" fill="#CACDD6" d="M213.2,108.5c0.4,0.1,0.7-0.1,0.9-0.3c0.5-0.6,1.4-2.4,1.5-2.5c0.2-0.4-0.9-1.2-1.3-0.6
				c0,0.1-1.1,1.5-1.4,2.4C212.8,108,212.8,108.4,213.2,108.5z"/>
		</g>
		<g id="XMLID_143_">
			<path id="XMLID_145_" fill="#CACDD6" d="M209.3,114.3c0.4,0.1,0.7,0,0.9-0.2c0.5-0.5,1.7-2.2,1.7-2.3c0.3-0.4-0.8-1.3-1.2-0.7
				c0,0.1-1.2,1.3-1.6,2.2C209,113.8,209,114.2,209.3,114.3z"/>
		</g>
		<g id="XMLID_141_">
			<path id="XMLID_142_" fill="#CACDD6" d="M204.9,119.7c0.4,0.2,0.7,0.1,1-0.1c0.6-0.4,1.9-2,1.9-2.1c0.3-0.4-0.6-1.4-1.1-0.9
				c-0.1,0.1-1.4,1.2-1.8,2C204.6,119.1,204.5,119.6,204.9,119.7z"/>
		</g>
		<g id="XMLID_139_">
			<path id="XMLID_140_" fill="#CACDD6" d="M200.7,124c0.3,0.2,0.6,0.2,0.8,0.1c0.5-0.3,1.5-1.3,1.6-1.4c0.3-0.3-0.6-1.3-1-1
				c0,0-1.1,0.8-1.5,1.4C200.4,123.4,200.4,123.8,200.7,124z"/>
		</g>
	</g>
	<g>
		<g id="XMLID_134_">
			<circle id="XMLID_135_" fill="#FFFFFF" cx="197.6" cy="126.1" r="13.7"/>
			<path id="XMLID_136_" fill="#505A78" d="M211.7,125.7c0-0.2,0-0.4,0-0.6c0-0.5-0.1-0.9-0.1-1.4c0-0.5-0.2-0.9-0.3-1.3
				c-0.1-0.4-0.2-0.9-0.4-1.3c-0.6-1.6-1.3-2.9-1.8-3.5c-0.9-1.2-1.9-2.3-3-3.1c-1.1-0.9-2.4-1.6-3.7-2c-1.4-0.5-2.8-0.8-4.2-0.9
				c-1.4-0.1-2.9,0-4.2,0.4c-1.4,0.3-2.6,0.9-3.9,1.7c-1.2,0.7-2.3,1.7-3.3,2.8c-1.5,1.6-2.9,3.6-3.5,5.8c-0.6,2.2-0.5,4.6-0.1,6.8
				c0.5,2.2,1.5,4.3,2.9,6.1c1.4,1.8,3.1,3.2,5.1,4.2c1,0.5,2.2,0.8,3.4,1.1c1.2,0.2,2.6,0.3,3.8,0.1c2.6-0.2,5-1.1,6.8-2.3
				c0.6-0.4,1.6-1.1,2.6-2.1c1-1,2-2.4,2.6-3.9c0.7-1.6,1.1-3.5,1.1-4.9c0-0.5,0-0.8,0-1.1h-1.1c0,0.2,0,0.5-0.1,1
				c0,0.6-0.2,1.6-0.5,2.6c-0.3,1-0.8,2.2-1.4,3.1c-1,1.7-2.4,3.1-3.7,3.9c-1.3,0.9-2.3,1.3-2.7,1.4c-2.2,0.8-4.5,1.1-6.6,0.8
				c-1.1-0.1-2.2-0.5-3.3-0.9c-1-0.5-2-1-2.9-1.7c-1.8-1.3-3.2-3.1-4.1-5.2c-0.8-2-1.1-4.3-0.7-6.6c0.2-1.2,0.5-2.3,0.9-3.5
				c0.5-1.1,1.1-2.1,1.9-3.1c1.5-1.9,3.6-3.2,5.9-4c1.1-0.4,2.3-0.7,3.5-0.8c1.2-0.1,2.4,0,3.6,0.2c2.4,0.6,4.4,2,6.1,3.7
				c0.8,0.8,2.2,2.1,3.2,5.1c0.3,0.9,0.6,1.9,0.7,3c0.1,0.3,0.1,0.6,0.2,0.9h1.1L211.7,125.7z"/>
		</g>
		<g id="XMLID_132_" opacity="0.15">
			<path id="XMLID_96_" fill="#505A78" d="M197.7,127.3c3.6,0,7,1.3,9.1,3.9c0.4,0.5,0.6,0.9,1.1,0c0.8-1.6,1.1-3.6,1-5.6
				c-0.4-5.7-4.9-10.4-10.4-10.8c-6.5-0.4-11.9,4.9-11.9,11.5c0,1.7,0.4,3.4,1,4.8c0.2,0.5,0.7,0.4,1.1-0.1
				C190.6,128.6,194.1,127.3,197.7,127.3z"/>
			<path id="XMLID_128_" fill="#505A78" d="M207.3,132c-0.3,0-0.5-0.3-0.7-0.6l-0.1-0.1c-1.9-2.4-5.2-3.9-8.9-3.9
				c-3.8,0-7,1.4-8.9,3.8c-0.3,0.4-0.6,0.5-0.9,0.5c-0.2,0-0.4-0.1-0.6-0.5c-0.7-1.6-1.1-3.2-1.1-4.9c0-3.3,1.4-6.5,3.8-8.7
				c2.3-2.2,5.3-3.2,8.4-3c5.7,0.4,10.3,5.1,10.7,11c0.1,2.2-0.2,4.1-1,5.7C207.9,131.7,207.7,132,207.3,132
				C207.3,132,207.3,132,207.3,132z M197.7,127.1c3.9,0,7.2,1.5,9.2,4l0.1,0.1c0.1,0.1,0.3,0.4,0.4,0.4c0,0,0.1,0,0.3-0.4
				c0.8-1.5,1.1-3.4,1-5.5c-0.4-5.6-4.7-10.2-10.2-10.5c-3-0.2-5.9,0.8-8.1,2.9c-2.3,2.1-3.6,5.2-3.6,8.4c0,1.6,0.3,3.2,1,4.7
				c0,0.1,0.1,0.2,0.2,0.2c0.1,0,0.2-0.1,0.4-0.3C190.4,128.5,193.8,127.1,197.7,127.1z"/>
		</g>
		<path id="XMLID_130_" fill="#505A78" d="M207.5,131.7c0.1-0.3-1-1.8-1.9-2.4c-0.1-0.1-0.1-0.1-0.2-0.2c-0.5-0.4-1.1-0.8-1.4-1
			c-0.5-0.3-1-0.6-1.5-0.8c-0.5-0.2-1.1-0.4-1.6-0.5c-0.5-0.1-1.1-0.1-1.7-0.2c-0.4-0.1-0.9-0.3-1.3-0.3c-0.4,0-0.9,0.1-1.3,0.2
			c-0.4,0-0.9,0.1-1.3,0.2c-0.4,0.1-0.9,0.1-1.3,0.2c-0.4,0.1-0.9,0.4-1.4,0.6s-0.9,0.4-1.3,0.6c-0.2,0.1-0.8,0.4-1.4,0.8
			c-0.2,0.1-0.4,0.3-0.5,0.5c-0.5,0.5-0.9,0.9-1.1,1.1c-0.9,0.9-0.8,1.6,0.5,0.3c0.2-0.2,0.6-0.4,1.1-0.7c0.3-0.1,0.6-0.3,0.9-0.5
			c0.7-0.4,1.4-0.7,1.5-0.8c0.4-0.2,0.9-0.4,1.3-0.5c0.4-0.1,0.9-0.2,1.3-0.3c0.4-0.1,0.9-0.2,1.3-0.3c0.4,0,0.9,0,1.4,0.1
			c0.5,0,1,0,1.5,0.1c0.5,0.1,0.9,0.2,1.4,0.3c0.5,0.1,1,0.1,1.4,0.3c0.5,0.2,0.8,0.5,1.3,0.7c0.2,0.1,0.6,0.2,1.1,0.5
			c0.2,0.1,0.4,0.2,0.6,0.2c0.2,0.1,0.6,0.3,0.8,0.4C206.5,130.8,207.4,131.9,207.5,131.7z"/>
		<g id="XMLID_101_">
			<circle id="XMLID_108_" fill="#FFFFFF" cx="197.5" cy="121.4" r="3.2"/>
			<path id="XMLID_110_" fill="#505A78" d="M201.1,121.1c0-0.2,0-0.3,0-0.4c-0.1-0.8-0.6-1.5-0.8-1.8c-0.5-0.6-1.1-1-1.8-1.2
				c-0.7-0.2-1.4-0.2-2.1,0c-0.7,0.2-1.2,0.7-1.7,1.2c-0.4,0.4-0.8,0.8-1,1.4c-0.2,0.6,0,1.2,0.1,1.7c0.1,0.6,0.4,1.1,0.7,1.5
				c0.3,0.5,0.7,0.9,1.2,1.2c0.5,0.3,1.2,0.4,1.8,0.4c0.6,0,1.3-0.2,1.7-0.4c0.3-0.2,1-0.6,1.5-1.3c0.2-0.4,0.4-0.8,0.4-1.2
				c0.1-0.4,0.1-0.7,0.1-0.9h-0.8c0,0.1,0,0.3-0.1,0.7c-0.1,0.2-0.2,0.7-0.6,1.1c-0.5,0.6-1.3,0.9-1.4,0.9c-0.5,0.1-0.9,0.1-1.3,0
				c-0.4-0.1-0.8-0.4-1.2-0.6s-0.6-0.6-0.8-1.1c-0.1-0.4-0.1-0.9,0-1.3c0.1-0.4,0.2-0.9,0.5-1.3c0.3-0.4,0.7-0.6,1.1-0.8
				s0.9-0.4,1.4-0.3c0.5,0.1,0.8,0.5,1.1,0.7c0.1,0.1,0.5,0.3,0.8,0.8c0.1,0.2,0.2,0.3,0.3,0.5c0.1,0.2,0.1,0.4,0.1,0.6h0.8
				C201.1,121.3,201.1,121.1,201.1,121.1z"/>
		</g>
	</g>
	<g id="XMLID_100_">
		<g id="XMLID_126_">
			<path id="XMLID_127_" fill="#CACDD6" d="M77.9,46.8c-0.4,0-0.7,0.2-0.9,0.4c-0.4,0.6-1.1,2.5-1.1,2.6c-0.2,0.5,1.1,1.1,1.3,0.4
				c0-0.1,0.9-1.6,1-2.5C78.4,47.2,78.3,46.8,77.9,46.8z"/>
		</g>
		<g id="XMLID_124_">
			<path id="XMLID_125_" fill="#CACDD6" d="M80.9,40.4c-0.4-0.1-0.7,0.1-0.9,0.3c-0.5,0.6-1.3,2.4-1.4,2.5c-0.2,0.4,1,1.2,1.3,0.6
				c0-0.1,1-1.5,1.3-2.4C81.3,40.9,81.3,40.5,80.9,40.4z"/>
		</g>
		<g id="XMLID_122_">
			<path id="XMLID_123_" fill="#CACDD6" d="M84.5,34.4c-0.4-0.1-0.7,0-0.9,0.3C83,35.2,82,36.9,82,37c-0.3,0.4,0.9,1.3,1.2,0.7
				c0-0.1,1.1-1.4,1.5-2.3C84.8,34.9,84.8,34.5,84.5,34.4z"/>
		</g>
		<g id="XMLID_119_">
			<path id="XMLID_121_" fill="#CACDD6" d="M88.5,28.7c-0.4-0.1-0.7,0-0.9,0.2c-0.6,0.5-1.7,2.2-1.8,2.2c-0.3,0.4,0.7,1.4,1.2,0.8
				c0-0.1,1.2-1.3,1.7-2.2C88.8,29.2,88.9,28.8,88.5,28.7z"/>
		</g>
		<g id="XMLID_117_">
			<path id="XMLID_118_" fill="#CACDD6" d="M93.1,23.4c-0.3-0.2-0.7-0.1-1,0.1c-0.6,0.4-2,1.9-2,2c-0.3,0.4,0.6,1.4,1.1,0.9
				c0.1-0.1,1.4-1.2,1.9-2C93.4,24,93.4,23.6,93.1,23.4z"/>
		</g>
		<g id="XMLID_115_">
			<path id="XMLID_116_" fill="#CACDD6" d="M98.3,18.7c-0.3-0.2-0.7-0.2-1,0c-0.7,0.4-2.2,1.7-2.2,1.8c-0.4,0.3,0.4,1.5,1,1
				c0-0.1,1.5-1,2.1-1.7C98.5,19.3,98.6,18.9,98.3,18.7z"/>
		</g>
		<g id="XMLID_113_">
			<path id="XMLID_114_" fill="#CACDD6" d="M104,14.7c-0.3-0.2-0.6-0.2-0.9-0.2c-0.7,0.3-2.4,1.4-2.5,1.5c-0.4,0.3,0.2,1.5,0.8,1.1
				c0.1,0,1.6-0.8,2.3-1.5C104.1,15.3,104.3,14.9,104,14.7z"/>
		</g>
		<g id="XMLID_111_">
			<path id="XMLID_112_" fill="#CACDD6" d="M110.2,11.4c-0.2-0.3-0.6-0.3-0.9-0.3c-0.7,0.2-2.5,1.1-2.6,1.2
				c-0.5,0.2,0.1,1.5,0.7,1.2c0.1,0,1.7-0.6,2.5-1.2C110.2,12,110.5,11.7,110.2,11.4z"/>
		</g>
		<g id="XMLID_107_">
			<path id="XMLID_109_" fill="#CACDD6" d="M116.7,8.9c-0.2-0.3-0.6-0.4-0.9-0.4c-0.7,0.1-2.6,0.8-2.7,0.9c-0.5,0.2-0.1,1.5,0.6,1.3
				c0.1,0,1.8-0.4,2.6-0.9C116.7,9.5,116.9,9.2,116.7,8.9z"/>
		</g>
		<g id="XMLID_104_">
			<path id="XMLID_105_" fill="#CACDD6" d="M123.5,7c-0.2-0.3-0.5-0.4-0.8-0.5c-0.7,0-2.7,0.6-2.8,0.6c-0.5,0.1-0.3,1.5,0.4,1.3
				c0.1,0,1.8-0.2,2.7-0.6C123.3,7.6,123.7,7.3,123.5,7z"/>
		</g>
		<g id="XMLID_102_">
			<path id="XMLID_103_" fill="#CACDD6" d="M129.3,5.9c-0.1-0.3-0.4-0.5-0.6-0.6c-0.6-0.1-2,0.2-2.1,0.2c-0.4,0.1-0.2,1.5,0.3,1.4
				c0.1,0,1.3,0,2-0.3C129.2,6.5,129.5,6.3,129.3,5.9z"/>
		</g>
	</g>
	<g>
		<g id="XMLID_97_">
			<circle id="XMLID_98_" fill="#FFFFFF" cx="75.1" cy="53.3" r="14.3"/>
			<path id="XMLID_99_" fill="#505A78" d="M89.8,52.9c0-0.2,0-0.4,0-0.6c0-0.5-0.1-1-0.1-1.4c0-0.5-0.2-0.9-0.3-1.4
				c-0.1-0.5-0.2-0.9-0.4-1.3c-0.6-1.7-1.4-3-1.9-3.7c-0.9-1.3-1.9-2.3-3.1-3.2c-1.2-0.9-2.5-1.6-3.8-2.1c-1.4-0.5-2.9-0.8-4.3-0.9
				c-1.5-0.1-3,0-4.4,0.4c-1.4,0.3-2.8,0.9-4,1.7c-1.3,0.8-2.4,1.8-3.4,2.9c-1.6,1.7-3,3.7-3.6,6c-0.7,2.3-0.5,4.8-0.1,7.1
				c0.5,2.3,1.6,4.5,3,6.3c1.5,1.9,3.2,3.3,5.3,4.3c1,0.5,2.2,0.9,3.5,1.1c1.3,0.2,2.7,0.3,4,0.1c2.7-0.2,5.2-1.2,7.1-2.4
				c0.6-0.4,1.6-1.2,2.7-2.2c1-1.1,2.1-2.5,2.8-4.1c0.7-1.6,1.1-3.6,1.2-5.1c0-0.5,0-0.8,0-1.1h-1.1c0,0.2,0,0.5-0.1,1
				c-0.1,1.3-0.6,4-1.9,6.1c-1.1,1.8-2.6,3.2-3.9,4.1c-1.3,0.9-2.4,1.4-2.8,1.5c-2.3,0.9-4.7,1.1-6.9,0.8c-1.2-0.1-2.3-0.5-3.4-1
				c-1-0.5-2.1-1.1-3-1.8c-1.9-1.4-3.3-3.3-4.3-5.5c-0.8-2.1-1.1-4.5-0.8-6.9c0.2-1.2,0.5-2.4,1-3.6c0.5-1.2,1.1-2.2,1.9-3.2
				c1.6-1.9,3.8-3.4,6.1-4.2c1.2-0.4,2.4-0.7,3.7-0.8c1.2-0.1,2.5,0,3.8,0.2c2.5,0.6,4.6,2.1,6.3,3.8c0.8,0.9,2.2,2.2,3.4,5.3
				c0.3,1,0.6,2,0.7,3.1c0.1,0.3,0.1,0.6,0.2,0.9h1.1L89.8,52.9z"/>
		</g>
		<g id="XMLID_95_">
			<path id="XMLID_84_" fill="#92E3A5" d="M75.2,54.6c3.7,0,7.2,1.4,9.4,4.1c0.4,0.5,0.7,0.9,1.2,0c0.9-1.7,1.2-3.7,1-5.8
				c-0.4-6-5.1-10.8-10.8-11.2c-6.8-0.4-12.4,5.1-12.4,12c0,1.8,0.4,3.5,1.1,5c0.2,0.6,0.7,0.4,1.1-0.1
				C67.9,55.9,71.5,54.6,75.2,54.6z"/>
			<path id="XMLID_91_" fill="#92E3A5" d="M85.2,59.5c-0.3,0-0.5-0.3-0.8-0.6l0-0.1c-2-2.6-5.4-4-9.2-4c-3.9,0-7.3,1.4-9.3,3.9
				c-0.3,0.4-0.6,0.5-0.9,0.5c-0.2,0-0.4-0.1-0.6-0.5c-0.7-1.6-1.1-3.3-1.1-5.1c0-3.4,1.4-6.8,3.9-9.1c2.4-2.2,5.5-3.4,8.8-3.2
				c5.9,0.4,10.7,5.3,11.1,11.4c0.1,2.3-0.2,4.3-1.1,5.9C85.8,59.3,85.5,59.5,85.2,59.5C85.2,59.5,85.2,59.5,85.2,59.5z M75.2,54.3
				c4,0,7.5,1.5,9.6,4.2l0.1,0.1c0.1,0.1,0.3,0.4,0.4,0.4c0,0,0.1,0,0.3-0.4c0.8-1.6,1.2-3.5,1-5.7c-0.4-5.9-4.9-10.6-10.6-11
				c-3.1-0.2-6.1,0.9-8.4,3c-2.4,2.2-3.7,5.4-3.7,8.7c0,1.7,0.4,3.4,1,4.9c0,0.1,0.1,0.2,0.2,0.2c0.1,0,0.3-0.1,0.5-0.3
				C67.6,55.9,71.1,54.3,75.2,54.3z"/>
		</g>
		<path id="XMLID_93_" fill="#505A78" d="M85.4,59.1c0.1-0.3-1-1.8-1.9-2.4c-0.1-0.1-0.2-0.1-0.2-0.2c-0.6-0.5-1.2-0.9-1.4-1.1
			c-0.5-0.3-1-0.6-1.6-0.8c-0.6-0.2-1.1-0.4-1.7-0.6c-0.6-0.2-1.2-0.1-1.8-0.2c-0.5-0.1-0.9-0.3-1.4-0.3c-0.5,0-1,0.1-1.4,0.2
			c-0.5,0-0.9,0.1-1.4,0.2c-0.5,0.1-0.9,0.1-1.4,0.2c-0.4,0.1-0.9,0.4-1.4,0.6c-0.5,0.2-1,0.4-1.4,0.6c-0.3,0.2-0.9,0.5-1.4,0.9
			c-0.2,0.2-0.4,0.3-0.6,0.5c-0.5,0.4-0.9,0.9-1.1,1.1c-0.9,0.9-0.8,1.6,0.5,0.3c0.2-0.2,0.6-0.4,1.1-0.7c0.3-0.2,0.6-0.3,0.9-0.5
			c0.7-0.5,1.5-0.8,1.6-0.9c0.5-0.2,0.9-0.4,1.3-0.5c0.5-0.2,0.9-0.2,1.4-0.4s0.9-0.2,1.4-0.3c0.5,0,0.9,0,1.4,0.1
			c0.5,0,1,0,1.5,0.1c0.5,0.1,1,0.2,1.5,0.3s1,0.1,1.5,0.3c0.5,0.2,0.9,0.6,1.3,0.8c0.2,0.1,0.6,0.2,1.2,0.5
			c0.2,0.1,0.5,0.2,0.7,0.3c0.3,0.1,0.5,0.2,0.7,0.4C84.5,58.3,85.4,59.3,85.4,59.1z"/>
		<g id="XMLID_86_">
			<circle id="XMLID_87_" fill="#FFFFFF" cx="75" cy="48.4" r="3.3"/>
			<path id="XMLID_90_" fill="#505A78" d="M78.7,48.1c0-0.2,0-0.3,0-0.4c-0.1-0.8-0.6-1.6-0.8-1.9c-0.5-0.6-1.1-1-1.8-1.2
				c-0.7-0.2-1.5-0.2-2.2,0c-0.7,0.2-1.3,0.7-1.8,1.3c-0.4,0.4-0.8,0.9-1,1.5s0,1.2,0.1,1.8c0.1,0.6,0.4,1.1,0.7,1.6
				c0.3,0.5,0.7,0.9,1.2,1.2c0.5,0.3,1.2,0.4,1.9,0.4c0.7,0,1.3-0.2,1.8-0.4c0.3-0.2,1.1-0.6,1.5-1.4c0.2-0.4,0.4-0.8,0.4-1.2
				c0.1-0.4,0.1-0.7,0.1-0.9h-0.8c0,0.1,0,0.3-0.1,0.7c-0.1,0.3-0.2,0.8-0.6,1.2c-0.5,0.7-1.3,0.9-1.5,0.9c-0.5,0.1-1,0.1-1.4,0
				c-0.5-0.1-0.9-0.4-1.2-0.7c-0.3-0.3-0.7-0.7-0.8-1.1c-0.2-0.4-0.1-0.9,0-1.4c0.1-0.5,0.2-0.9,0.6-1.3c0.3-0.4,0.7-0.6,1.2-0.8
				s0.9-0.4,1.4-0.3c0.5,0.1,0.9,0.5,1.2,0.8c0.2,0.2,0.5,0.3,0.8,0.9c0.1,0.2,0.2,0.4,0.3,0.6c0.1,0.2,0.1,0.4,0.1,0.6h0.8
				C78.7,48.3,78.7,48.2,78.7,48.1z"/>
		</g>
	</g>
	<g id="XMLID_399_">
		<path id="XMLID_235_" fill="#F6F7F8" d="M114.7-8.6L112.8-8c-0.7,0.3-1.2,1-1.2,1.8v91.3c0,1.1,0.9,2,2,2l60.6-3.8
			c2.2-0.1,4.4,0.9,5.9,2.6c2.2,2.5,5.5,4.1,9.1,4.1c3.7,0,7-1.6,9.2-4.2c1.5-1.7,3.6-2.8,5.9-2.7l60.2,3c1.1,0,2-0.9,2-2V-5.6
			c0-0.8-0.5-1.5-1.2-1.8l-2.4-0.8"/>
	</g>
	<g>
		<path id="XMLID_89_" fill="#505A78" d="M138.1-45.2c-0.4-0.4-1.5-0.6-2.8-0.7c-1.6-0.1-3.3-0.1-4.8-0.1c-1.5,0-2.7,0-3.5,0
			c-0.1,0-0.2,0-0.2,0c0-0.1,0-0.2,0-0.2c-0.1-0.5-0.3-1-0.5-1.5c-0.4-0.9-1-2-2.1-2.5c-1.1-0.5-2.4-0.2-3.2,0.3
			c-0.5,0.2-0.8,0.5-1.3,0.8l-0.1,0.1l-0.1,0.1l-0.1,0.1l-0.1,0.1c0,0,0-0.1,0-0.1l0-0.2l0-0.1c0-0.1,0-0.4-0.1-0.5
			c-0.1-0.4-0.1-0.7-0.2-1c-0.3-1.4-0.8-2.7-1.8-4c-1-1.5-2.7-2.7-4.6-3.1c-1.8-0.4-3.7-0.4-5.6,0.2c-1.8,0.6-3.4,1.8-4.5,3.3
			c-0.6,0.7-1,1.5-1.4,2.3c-0.2,0.4-0.3,0.8-0.5,1.2c-0.1,0.2-0.1,0.4-0.2,0.6c0,0.1-0.1,0.2-0.1,0.3l0,0.1l0,0c0,0,0,0-0.1,0
			c-0.1,0-0.2-0.1-0.4-0.2c-0.2-0.1-0.4-0.1-0.6-0.2c-0.4-0.1-0.8-0.2-1.3-0.3c-0.9-0.1-1.9,0-2.8,0.4c-0.9,0.5-1.6,1.3-1.9,2.1
			c-0.2,0.4-0.3,0.8-0.4,1.2c-0.1,0.2,0,0.3-0.1,0.5c0,0.1-0.1,0-0.1,0c-0.3,0-0.6,0-0.9,0c-0.7,0-1.6,0-2.5,0c-1.8,0-3.7,0-5.3,0.1
			c-0.7,0-1.2,0-1.5,0c-1.9,0-2.6,1.4,0.2,1.4c0.3,0,0.6,0,1.3,0c1.8,0,4.5,0,6.8,0c0.6,0,1.2,0,1.7,0c0.4,0,0.9,0,1.3,0h0.2
			c0,0,0.1,0,0.1,0l0-0.1l0-0.3c0-0.2,0.1-0.3,0.1-0.5c0-0.2,0.1-0.3,0.1-0.5c0-0.2,0.1-0.3,0.1-0.4c0-0.2,0.1-0.3,0.1-0.4
			c0.1-0.2,0.2-0.4,0.2-0.5c0.2-0.5,0.6-0.8,0.9-1.1c0.4-0.2,0.8-0.4,1.2-0.4c0.4,0,0.9,0,1.4,0.1c0.2,0,0.5,0.1,0.7,0.2
			c0.1,0,0.2,0.1,0.3,0.1l0.2,0.1l0.3,0.1c0.1,0,0.2,0.1,0.4,0.2l0.4,0.1c0.2,0.1,0.5,0,0.7-0.1c0.2-0.1,0.4-0.3,0.4-0.5
			c0.1-0.2,0.2-0.5,0.2-0.8l0.1-0.3c0-0.1,0-0.1,0-0.2l0.1-0.4c0.1-0.3,0.2-0.6,0.3-0.8c0.4-1.1,1-2.1,1.8-3c0.8-0.9,1.7-1.6,2.8-2
			c1.1-0.4,2.3-0.6,3.6-0.5c2.2,0.1,4.1,1.3,5.2,3.1c0.6,0.9,1,2,1.2,3c0.1,0.3,0.1,0.5,0.2,0.8l0.1,1.4c0,0.3,0.1,0.6,0.1,0.8
			c0.1,0.2,0.2,0.4,0.3,0.5c0.1,0.1,0.2,0.2,0.4,0.2l0.5-0.1l0.3-0.1l0.2,0c0.1,0,0.2-0.1,0.2-0.2l0.9-0.8L121-48
			c0.2-0.1,0.3-0.2,0.4-0.3c0.6-0.3,1.2-0.6,1.7-0.5c0.9,0.1,1.7,1.4,2,2.8c0,0,0,0,0,0.1c0,0.1,0.1,0.2,0.1,0.4
			c0,0.2,0.1,0.3,0.1,0.5c0,0.1,0,0.2,0.1,0.3l0,0.2l0,0.1c0,0,0.1,0,0.1,0c0.5,0,1.1,0,1.7,0c0.7,0,1.5,0,2.4,0
			c1.8,0,3.9-0.1,5.8-0.1C137.1-44.7,138.5-44.9,138.1-45.2z"/>
	</g>
	<path id="XMLID_88_" fill="#505A78" d="M319.2,116.2c-0.2-0.3-2.6-0.7-4-0.8c-2.9-0.1-6.2-0.3-7.5-0.3c-1.7-0.1-3.3-0.1-4.8-0.2
		l-0.3,0c0,0,0,0-0.1,0c0,0-0.1,0-0.1-0.1c0,0,0,0,0-0.1l0-0.1c-0.1-0.2-0.1-0.4-0.2-0.6c-0.5-1.2-1.1-2.4-2.3-3.2
		c-0.6-0.4-1.2-0.7-1.9-0.8c-0.7-0.1-1.4-0.1-2,0c-0.9,0.1-1.8,0.4-2.6,0.8c-0.4,0.2-0.8,0.5-1.1,0.8c-0.1,0.1-0.1,0.1-0.1,0.1
		l0,0.1l-0.1,0.1c-0.1,0.1-0.1-0.1-0.1-0.2c-0.1-0.2-0.1-0.4-0.2-0.6c-0.6-1.8-1.3-3.8-2.9-5.2c-1.5-1.5-3.7-2.1-5.8-2.1
		c-1.1,0-2.1,0.2-3.1,0.7c-0.9,0.5-1.7,1.2-2.4,2c-0.6,0.8-1.1,1.7-1.6,2.5c-0.2,0.4-0.4,0.9-0.5,1.3c-0.1,0.4-0.3,1.1-0.3,0.9
		c0,0,0,0.1,0,0.1c0,0.1-0.1,0.1-0.1,0l-0.1-0.1c-0.2-0.2-0.4-0.6-0.8-0.9c-0.6-0.6-1.6-0.9-2.3-0.9c-0.5-0.1-1.3,0-1.9,0.2
		c-0.6,0.2-1.1,0.6-1.5,1.1c-0.8,0.9-1.2,1.9-1.4,2.9c0,0.1,0,0.2,0,0.3c0,0.1,0,0.1,0,0.2c0,0.1-0.1,0.2-0.1,0.3
		c-0.1,0.1-0.2,0.1-0.3,0.2c-0.1,0-0.4,0-0.7,0c-1.2,0-2.6,0-4,0c-1,0-2.2,0-3,0.1c-0.9,0.1-1.6,0.1-2,0.1c-1.7,0-2.3,0.7,0.2,0.8
		c0.4,0,1,0.1,1.8,0.2c1.4,0.1,2.9,0.2,4.4,0.2c0.9,0,1.8,0,2.6,0c0.2,0,0.4,0,0.7,0c0.3,0,0.6-0.1,0.8-0.3c0.5-0.3,0.8-0.8,0.9-1.3
		c0.2-1.3,0.8-2.1,0.9-2.3c0.6-0.8,1.4-1.2,2.1-1.2c1,0,1.7,0.2,2.2,0.9c0.1,0.1,0.1,0.2,0.2,0.3c0.1,0.2,0.2,0.4,0.3,0.6
		c0.1,0.2,0.2,0.4,0.3,0.5c0.1,0.1,0.2,0.2,0.3,0.3c0.2,0.2,0.6,0.2,1,0.1c0.4-0.1,0.5-0.3,0.6-0.7c0.1-0.3,0.3-0.6,0.4-1.1l0.1-0.4
		c0-0.1,0.1-0.2,0.1-0.4c0.1-0.5,0.3-0.9,0.5-1.4c0.7-1.8,1.9-3.4,3.6-4.2c0.8-0.3,1.7-0.4,2.6-0.3c0.9,0.1,1.8,0.4,2.6,0.9
		c1.7,1,2.9,2.8,3.7,4.8l0.2,0.6l0.1,0.3c0.1,0.2,0.1,0.4,0.2,0.6c0,0.2,0.1,0.4,0.2,0.6c0.1,0.2,0.2,0.2,0.2,0.4
		c0.1,0.1,0.2,0.2,0.3,0.3c0.1,0.1,0.4,0.1,0.5,0.1c0.1,0,0.2,0,0.3,0c0.1,0,0.2-0.1,0.3-0.1c0.2-0.2,0.5-0.4,0.7-0.6
		c0.1-0.1,0.1-0.1,0.2-0.1l0.1-0.1c0.1,0,0.1-0.1,0.2-0.1c0.1-0.1,0.2-0.2,0.4-0.2c0.5-0.3,1-0.5,1.6-0.7c0.9-0.2,2-0.4,2.8-0.1
		c0.9,0.2,1.6,0.9,2.1,1.7c0.3,0.5,0.5,1,0.6,1.5l0.1,0.2c0,0.1,0.1,0.3,0.1,0.4c0.1,0.2,0.3,0.5,0.5,0.6c0.4,0.4,1.2,0.3,1.4,0.3
		c1,0.1,2,0.1,3,0.2c1.1,0,2.7-0.1,5.7-0.1c0.9,0,1.9-0.1,2.8-0.1l0.4,0l0.2,0l0.3,0c0.2,0,0.4-0.1,0.6-0.1
		C317.5,116.3,319.3,116.4,319.2,116.2z"/>
	<g id="XMLID_83_" opacity="0.15">
		<path id="XMLID_79_" fill="#505A78" d="M118.8,80c0,0,1.2,2.1,4.7,0.9c3.6-1.2,13.1-3.8,19.9-4.7c7.2-0.9,14.8-2.9,44.8,6.5
			l1.7-3.7C190,79.1,133,62,118.8,80z"/>
		<path id="XMLID_80_" fill="#505A78" d="M188.6,83.6l-0.6-0.2c-27.9-8.8-36.3-7.6-43.1-6.7c-0.5,0.1-0.9,0.1-1.4,0.2
			c-6.6,0.9-16.1,3.5-19.8,4.7c-4.1,1.4-5.6-1.2-5.6-1.3l-0.2-0.4l0.3-0.4c6.1-7.7,20.1-10.2,41.6-7.5c15.9,2,30.2,6.3,30.4,6.3
			l0.8,0.2L188.6,83.6z M152.8,74.6c6.6,0,16.6,1.4,35.1,7.2l1.1-2.3c-6.9-2-55.8-15.1-69.2,0.5c0.5,0.4,1.6,0.9,3.6,0.3
			c3.3-1.1,12.9-3.8,20.1-4.8c0.4-0.1,0.9-0.1,1.4-0.2C147,75,149.5,74.6,152.8,74.6z"/>
	</g>
	<g id="XMLID_77_" opacity="0.15">
		<path id="XMLID_69_" fill="#505A78" d="M259.2,80c0,0-1.2,2.1-4.7,0.9c-3.6-1.2-13.1-3.8-19.9-4.7c-6.6-0.9-14.8-2.9-44.8,6.5
			l-1.7-3.7C188.1,79.1,245,62,259.2,80z"/>
		<path id="XMLID_74_" fill="#505A78" d="M189.4,83.6l-2.3-5l0.8-0.2c0.1,0,14.5-4.3,30.4-6.3c21.5-2.7,35.5-0.2,41.6,7.5l0.3,0.4
			l-0.2,0.4c-0.1,0.1-1.5,2.6-5.6,1.3c-3.3-1.1-12.8-3.7-19.8-4.7l-1-0.1c-6.4-1-15.2-2.3-43.4,6.7L189.4,83.6z M189.1,79.5l1.1,2.3
			c28.1-8.8,37-7.5,43.5-6.5l1,0.1c7.1,1,16.7,3.7,20.1,4.8c2,0.7,3.1,0.1,3.6-0.3C244.9,64.4,196,77.6,189.1,79.5z"/>
	</g>
	<g id="XMLID_70_">
		<path id="XMLID_72_" fill="#FFFFFF" d="M118.8-14.5c-0.7,0.2-1.3,0.5-2,0.8c-0.4,0.2-0.6,0.5-0.6,1v92.8c0,0.7,0.7,1.2,1.4,0.9
			c9.3-3.4,18.8-6.6,28.3-6.6c20,0,39.1,8.5,42.4,10.4c0.3,0.2,0.7,0.2,1,0c3.3-1.9,22.7-10.4,42.4-10.4c9.5,0,19,3.2,28.3,6.6
			c0.7,0.2,1.4-0.2,1.4-0.9v-92.8c0-0.4-0.2-0.8-0.6-1c-0.9-0.3-1.8-0.7-2.7-1"/>
		<path id="XMLID_73_" fill="#505A78" d="M258.1-14.9c0.1,0.3,1.7,1.2,2.6,1.6c0,0,0.1,0,0.1,0.1l0,0c0.1,0.1,0.2,0.2,0.2,0.4
			c0,0.3,0,0.9,0,1.3c0,1.8,0,3.6,0,5.4c0,3.6,0,7.2-0.1,10.5c0,6.6,0,12.3-0.1,15.5c0,11.5-0.1,22.4-0.1,33.1c0,5.5,0,11,0,16.5
			c0,2.7,0,5.5,0,8.2v2.1c0,0.4,0,0.5-0.1,0.6c-0.1,0.1-0.2,0.2-0.3,0.1c-1.2-0.4-2.5-0.9-3.8-1.4c-5-1.8-10.2-3.4-15.7-4.4
			c-2.7-0.5-5.5-0.8-8.3-0.8c-1.4,0-2.8,0.1-4.2,0.1c-1.4,0.1-2.9,0.2-4.3,0.3c-8.7,0.9-17.2,2.8-25.6,5.8c-2.1,0.8-4.1,1.6-6.1,2.4
			c-1,0.5-2,0.9-3,1.4l-0.4,0.2c-0.1,0-0.1,0-0.1,0.1c0,0-0.1,0-0.1,0c0,0,0,0-0.1,0l-0.2-0.1c-0.5-0.3-1-0.5-1.5-0.8
			c-4-1.9-8.2-3.4-12.3-4.7c-8.4-2.7-17.1-4.4-25.8-4.8c-1.1,0-2.2-0.1-3.3-0.1c-1.1,0-2.2,0.1-3.3,0.1c-2.2,0.2-4.3,0.5-6.4,0.9
			c-4.2,0.8-8.3,2-12.3,3.4c-2,0.7-4.1,1.4-6.2,2.2c-0.2,0.1-0.4-0.1-0.5-0.3c0,0,0-0.2,0-0.3v-0.4v-0.9c0-1.2,0-2.4,0-3.6
			c0-4.9,0-9.9-0.1-14.9c0-9.9,0-19.7,0-28c0-5.7,0-18.5,0-31.6c0-3,0-6.3,0-9.5l0-2.4l0-1.2c0-0.1,0-0.2,0.1-0.3l0.1-0.1
			c0-0.1,0.1-0.1,0.1-0.1c0.3-0.2,0.8-0.4,1-0.5c1.2-0.5,1.4-1.2-0.4-0.5c-0.1,0-0.3,0.1-0.5,0.2c-0.1,0-0.2,0.1-0.3,0.1
			c-0.1,0-0.3,0.1-0.4,0.2l-0.1,0.1l0,0c0,0,0,0-0.1,0.1c0,0.1-0.1,0.1-0.1,0.2c-0.2,0.2-0.2,0.6-0.2,0.8c0,0.9,0,1.8,0,2.7
			c0,1.8,0,3.7,0,5.6c0,3.8,0,7.6,0,11.2c0,16.8,0,33.3,0,36.2c0,10.1,0,19.6,0,28.9c0,2.5,0,4.9,0,7.3v0.4c0,0.2,0,0.3,0,0.5
			c0.1,0.4,0.3,0.9,0.7,1.1c0.4,0.2,0.9,0.3,1.3,0.1l0.8-0.3c1.1-0.4,2.3-0.8,3.4-1.2c4.5-1.6,9-3,13.7-3.9c2.3-0.5,4.6-0.8,7-1
			c1.2-0.1,2.4-0.1,3.5-0.1c1.2,0,2.4,0.1,3.6,0.1c4.8,0.2,9.5,0.9,14.3,1.9c4.5,1,9,2.3,13.5,3.9c2.2,0.8,4.5,1.7,6.7,2.7
			c1.1,0.5,2.2,1,3.3,1.6l0.4,0.2c0.1,0,0.1,0.1,0.3,0.1c0.1,0.1,0.2,0.1,0.4,0.1c0.2,0,0.5,0,0.8-0.1c0.1,0,0.2-0.1,0.3-0.1
			l0.2-0.1c0.5-0.3,1.1-0.6,1.6-0.8c4.7-2.1,9.6-3.9,14.6-5.3c5-1.4,10.1-2.6,15.2-3.3c2.6-0.3,5.1-0.6,7.7-0.6
			c2.6-0.1,5.1-0.1,7.7,0.2c5.1,0.6,10.1,1.9,15.1,3.5c2.5,0.8,4.9,1.6,7.4,2.5l0.5,0.2l0.2,0.1c0.1,0,0.3,0.1,0.4,0.1
			c0.5,0.1,1.1-0.2,1.4-0.6c0.2-0.2,0.3-0.5,0.4-0.7c0-0.1,0-0.3,0-0.4v-0.2l0-1l0-3.9c0-5.2-0.1-10.4-0.1-15.6
			c0.1-10.4,0.1-20.8,0.2-31.2c0-5-0.1-12.7-0.1-26.6c0-4.3-0.1-8.8-0.1-13.2l0-0.8c0-0.3-0.1-0.8-0.4-1.1c-0.1-0.1-0.1-0.1-0.1-0.1
			l0,0l0,0l-0.1,0c-0.1-0.1-0.2-0.1-0.3-0.2c-0.2,0-0.3-0.1-0.5-0.1C259.3-14.6,258-15.1,258.1-14.9z"/>
	</g>
	<g id="XMLID_68_" opacity="0.15">
		<path id="XMLID_64_" fill="#505A78" d="M121.7,74.3c0,0,1.1,1.9,4.2,0.9c3.2-1.1,11.6-4.2,17.8-4.2c6.1,0,13.2-0.9,40,7.6l1.5-5.1
			C185.2,73.5,134.4,58.2,121.7,74.3z"/>
		<path id="XMLID_65_" fill="#505A78" d="M184.2,79.5l-0.7-0.2c-24.5-7.8-32.4-7.7-38.3-7.6c-0.5,0-1,0-1.5,0
			c-5.3,0-12.5,2.4-16.3,3.8c-0.5,0.2-0.9,0.3-1.3,0.4c-3.7,1.2-5.1-1.1-5.1-1.2l-0.2-0.4l0.3-0.4c5.4-6.9,18-9.2,37.2-6.7
			c14.2,1.8,27,5.6,27.1,5.6l0.7,0.2L184.2,79.5z M146.9,70.2c5.8,0,14.4,0.6,36.3,7.5l1.1-3.7c-6.1-1.7-49.6-13.5-61.7,0.3
			c0.4,0.3,1.4,0.7,3,0.2c0.3-0.1,0.8-0.3,1.2-0.4c3.9-1.4,11.2-3.9,16.8-3.9c0.5,0,1,0,1.5,0C145.8,70.2,146.3,70.2,146.9,70.2z"/>
	</g>
	<g id="XMLID_63_" opacity="0.15">
		<path id="XMLID_35_" fill="#505A78" d="M256.4,74.3c0,0-1.1,1.9-4.2,0.9c-3.2-1.1-11.6-4.2-17.8-4.2s-13.2-0.9-40,7.6l-1.5-5.1
			C192.8,73.5,243.7,58.2,256.4,74.3z"/>
		<path id="XMLID_57_" fill="#505A78" d="M193.9,79.5l-2-6.5l0.7-0.2c0.1,0,12.9-3.9,27.1-5.6c19.2-2.4,31.8-0.2,37.2,6.7l0.3,0.4
			l-0.2,0.4c-0.1,0.1-1.4,2.4-5.1,1.2c-0.4-0.1-0.8-0.3-1.2-0.4c-3.8-1.3-11-3.8-16.3-3.8c-0.5,0-1,0-1.5,0
			c-5.8-0.1-13.8-0.1-38.3,7.6L193.9,79.5z M193.7,74l1.1,3.7c24.1-7.6,32.1-7.5,38-7.4c0.5,0,1,0,1.5,0c5.6,0,12.9,2.5,16.8,3.9
			c0.5,0.2,0.9,0.3,1.2,0.4c1.7,0.6,2.6,0.2,3-0.2C243.4,60.5,199.8,72.3,193.7,74z"/>
	</g>
	<g id="XMLID_43_">
		<path id="XMLID_44_" fill="#FFFFFF" d="M148.4,69.4c18.8,0,36.8,13,39.9,14.8c0.3,0.2,0.6,0.2,0.9,0c3.1-1.8,21.3-14.8,39.8-14.8
			c8.9,0,17.9,1.6,26.6,4.9c0.6,0.2,1.3-0.2,1.3-0.9v-91.3c0-0.4-0.2-0.8-0.6-0.9c-9.2-3.7-18.7-5.5-28.2-5.5
			c-19.4,0-33.7,8.9-39,12.3l-0.5,0.3l-0.5-0.3c-5.3-3.4-19.6-12.3-39-12.3c-9.5,0-18.9,1.9-28.2,5.5c-0.4,0.1-0.6,0.5-0.6,0.9v91.3
			c0,0.7,0.7,1.1,1.3,0.9C130.6,71.1,139.5,69.4,148.4,69.4z"/>
		<path id="XMLID_45_" fill="#505A78" d="M121,46c0-11.8,0-23.1,0-34.1c0-5.5,0-11,0-16.4c0-2.7,0-5.4,0-8.1v-4v-1
			c0-0.2,0-0.2,0-0.3s0.1-0.1,0.1-0.2c0,0,0.1,0,0.1-0.1l0.2-0.1l0.5-0.2l0.9-0.4c10-3.7,20.9-5.5,31.7-4.6
			c10.9,0.9,21.7,4.8,31.5,11c0.5,0.3,1.1,0.7,1.6,1l0.6,0.4c0.1,0.1,0.2,0.2,0.4,0.2l0.4-0.2c0.3-0.2,0.7-0.4,1-0.6
			c9.5-6.1,20.3-10.3,31.7-11.5c11.3-1.1,22.9,0.8,33.6,4.9l0.5,0.2l0.2,0.1c0,0,0,0,0,0c0,0,0.1,0.1,0.1,0.1c0,0,0,0,0,0.1v0.3v2.2
			v4.3c0,2.9,0,5.7,0,8.6c0,5.7,0,11.5,0,17.2c0,11.4,0,22.7,0,33.9c0,5.6,0,11.7,0,18.1c0,1.6,0,3.2,0,4.8v1.2v0.6
			c0,0.2,0,0.1,0,0.2c-0.1,0.1-0.2,0.1-0.3,0.1l-1.1-0.4c-3.1-1.1-6.4-2-9.6-2.7c-3.3-0.7-6.6-1.2-9.9-1.5c-1.6-0.1-3.3-0.2-4.9-0.2
			l-1.2,0l-1.2,0.1c-0.8,0-1.6,0.1-2.4,0.1c-6.4,0.6-12.4,2.4-17.6,4.6c-2.6,1-6.2,2.7-10.4,5.1c-2.1,1.2-4.3,2.5-6.6,4
			c-0.6,0.4-1.2,0.7-1.7,1.1c-0.2,0.1-0.3,0.1-0.4,0.1l-0.9-0.5c-1.2-0.8-2.5-1.5-3.7-2.3c-2.6-1.6-5.2-3.1-8.1-4.5
			c-2.8-1.4-5.7-2.7-8.7-3.8c-5.9-2.2-12.2-3.5-18-3.6c-0.3,0-0.5,0-0.8,0V70c0.2,0,0.4,0,0.8,0c6.8,0.1,14.6,2.1,22.2,5.4
			c3.8,1.7,7.5,3.6,11,5.8c1.8,1.1,3.5,2.2,5.3,3.3l0.3,0.2c0.2,0.1,0.4,0.2,0.6,0.2c0.2,0,0.4,0,0.6-0.1c0.2-0.1,0.4-0.2,0.5-0.2
			c0.4-0.3,0.9-0.5,1.3-0.8c0.9-0.5,1.7-1.1,2.5-1.6c6.7-4.1,13.2-7.2,18.4-9c5.2-1.9,9.2-2.4,10.6-2.7c6.9-1,13.8-0.4,20.3,0.8
			c3.3,0.6,6.4,1.4,9.5,2.4c0.8,0.3,1.5,0.5,2.3,0.8l0.6,0.2l0.3,0.1c0.1,0.1,0.3,0.1,0.5,0.1c0.7,0,1.3-0.4,1.5-1.1
			c0.1-0.1,0.1-0.3,0.1-0.5V73v-0.6v-1.2c0-0.8,0-1.6,0-2.4c0-12.9,0-25.3,0-37.7c0-12.4,0-24.8,0-37.6c0-3.2,0-6.4,0-9.7v-1.2
			c0-0.2,0-0.3,0-0.7c0-0.3-0.2-0.6-0.4-0.9c-0.2-0.2-0.6-0.4-0.7-0.5l-0.6-0.2l-1.2-0.4c-1.6-0.6-3.1-1.1-4.7-1.6
			c-6.4-1.9-13.2-3.1-20.3-3.3c-7.1-0.2-14.1,0.9-20.9,2.9c-6.8,2.1-13.3,5.2-19.3,9.1l-0.6,0.4c0,0,0,0-0.1,0l-0.2-0.1l-1.7-1.1
			c-1.1-0.7-2.3-1.4-3.4-2c-2.3-1.3-4.7-2.5-7.1-3.5c-2.4-1.1-4.9-2-7.5-2.8c-1.3-0.3-2.6-0.8-3.8-1l-1.9-0.5l-2-0.4
			c-5.2-1-10.6-1.3-15.9-1c-5.3,0.3-10.6,1.2-15.7,2.6c-2.6,0.7-5.1,1.5-7.6,2.5l-0.9,0.4c-0.5,0.2-1,0.7-1.1,1.2c0,0.1,0,0.3,0,0.4
			v0.2v0.5v1v4c0,5.3,0,10.5,0,15.8c0,10.5,0,21,0,31.4c0,1.1,0,10.1,0,22.6c0,3.1,0,6.5,0,10c0,1.8,0,3.6,0,5.4v0.3
			c0,0.2,0,0.4,0.1,0.6c0.1,0.4,0.4,0.7,0.8,0.9c0.4,0.2,0.8,0.2,1.2,0.1c0.2-0.1,0.3-0.1,0.4-0.1l0.3-0.1c0.9-0.3,1.8-0.6,2.6-0.9
			c7.1-2.3,14.9-3.7,22.5-3.8c0.1,0,0.4,0,0.6-0.1v-1.1c-0.2,0-0.4,0-0.6,0c-5.4,0-10.9,0.7-16.3,1.9c-2.7,0.6-5.3,1.4-7.8,2.2
			c-0.6,0.2-1.2,0.4-1.9,0.7c-0.2,0.1-0.2,0.1-0.3,0.1c-0.1,0-0.1,0-0.2,0c-0.1-0.1-0.2-0.2-0.2-0.3c0-1.3,0-2.6,0-3.8
			C121.1,59.6,121.1,51,121,46z"/>
	</g>
	<path id="XMLID_56_" fill="#505A78" d="M189,78.8c0.3-1.9,0.4-6.5,0.5-11.8c0.1-11.9,0.1-44.8,0.1-46.4c0-8.2-1.1-11.2-1.1,0.9
		c0,1.1-0.2,29.7,0,45.5C188.6,74.6,188.8,80.6,189,78.8z"/>
	<path id="XMLID_55_" fill="#505A78" d="M189,8.7c0.3-0.4,0.4-1.4,0.5-2.6c0.1-2.6,0.1-9.8,0.1-10.1c0-1.8-1.1-2.4-1.1,0.2
		c0,0.2-0.2,6.5,0,9.9C188.6,7.8,188.8,9.1,189,8.7z"/>
	<path id="XMLID_54_" fill="#505A78" d="M179.5,35.3c-0.6-0.4-1.8-1.1-3.2-1.9c-1.5-0.7-3.3-1.5-5.3-2.3c-1.1-0.4-2.5-0.8-4.1-1.3
		c-0.4-0.1-0.8-0.3-1.2-0.4c-0.4-0.1-0.9-0.2-1.3-0.3c-0.9-0.2-1.8-0.4-2.7-0.7c-1.9-0.5-3.9-0.7-5.9-1.1c-1-0.1-2-0.3-3.1-0.4
		c-1-0.1-2-0.2-3.1-0.2c-4-0.2-7.8,0-10.6,0.2c-1.4,0.2-2.6,0.3-3.4,0.4c-0.9,0.1-1.4,0.2-1.6,0.2c-0.8,0.1-1.6,0.3-2.2,0.4
		c-0.7,0.2-1.2,0.3-1.7,0.5c-1,0.3-1.5,0.6-1.6,0.7c-0.1,0.2,0.4,0.2,1.4,0.1c0.5-0.1,1.2-0.2,2-0.3c0.8-0.1,1.8-0.3,3-0.5
		c0.2-0.1,1.8-0.2,4.2-0.5c2.4-0.2,5.8-0.4,9.5-0.2c3.7,0.1,7.7,0.8,11.6,1.4c1.9,0.5,3.8,0.9,5.6,1.3c1.8,0.6,3.4,1.1,4.9,1.5
		c2.8,1.1,5.4,2,7,2.7C179.3,35.4,180.1,35.7,179.5,35.3z"/>
	<path id="XMLID_53_" fill="#505A78" d="M179.5,42.9c-0.6-0.4-1.8-1.1-3.2-1.9c-1.5-0.7-3.3-1.5-5.3-2.3c-1.1-0.4-2.5-0.8-4.1-1.3
		c-0.4-0.1-0.8-0.3-1.2-0.4c-0.4-0.1-0.9-0.2-1.3-0.3c-0.9-0.2-1.8-0.4-2.7-0.7c-1.9-0.5-3.9-0.7-5.9-1.1c-1-0.1-2-0.3-3.1-0.4
		c-1-0.1-2-0.2-3.1-0.2c-4-0.2-7.8,0-10.6,0.2c-1.4,0.2-2.6,0.3-3.4,0.4c-0.9,0.1-1.4,0.2-1.6,0.2c-0.8,0.1-1.6,0.3-2.2,0.4
		c-0.7,0.2-1.2,0.3-1.7,0.5c-1,0.3-1.5,0.6-1.6,0.7c-0.1,0.2,0.4,0.2,1.4,0.1c0.5-0.1,1.2-0.2,2-0.3c0.8-0.1,1.8-0.3,3-0.5
		c0.2-0.1,1.8-0.2,4.2-0.5c2.4-0.2,5.8-0.4,9.5-0.2c3.7,0.1,7.7,0.8,11.6,1.4c1.9,0.5,3.8,0.9,5.6,1.3c1.8,0.6,3.4,1.1,4.9,1.5
		c2.8,1.1,5.4,2,7,2.7C179.3,43,180.1,43.3,179.5,42.9z"/>
	<path id="XMLID_52_" fill="#505A78" d="M179.5,50.8c-0.6-0.4-1.8-1.1-3.2-1.9c-1.5-0.7-3.3-1.5-5.3-2.3c-1.1-0.4-2.5-0.8-4.1-1.3
		c-0.4-0.1-0.8-0.3-1.2-0.4c-0.4-0.1-0.9-0.2-1.3-0.3c-0.9-0.2-1.8-0.4-2.7-0.7c-1.9-0.5-3.9-0.7-5.9-1.1c-1-0.1-2-0.3-3.1-0.4
		c-1-0.1-2-0.2-3.1-0.2c-4-0.2-7.8,0-10.6,0.2c-1.4,0.2-2.6,0.3-3.4,0.4c-0.9,0.1-1.4,0.2-1.6,0.2c-0.8,0.1-1.6,0.3-2.2,0.4
		c-0.7,0.2-1.2,0.3-1.7,0.5c-1,0.3-1.5,0.6-1.6,0.7c-0.1,0.2,0.4,0.2,1.4,0.1c0.5-0.1,1.2-0.2,2-0.3c0.8-0.1,1.8-0.3,3-0.5
		c0.2-0.1,1.8-0.2,4.2-0.5c2.4-0.2,5.8-0.4,9.5-0.2c3.7,0.1,7.7,0.8,11.6,1.4c1.9,0.5,3.8,0.9,5.6,1.3c1.8,0.6,3.4,1.1,4.9,1.5
		c2.8,1.1,5.4,2,7,2.7C179.3,50.9,180.1,51.2,179.5,50.8z"/>
	<path id="XMLID_51_" fill="#505A78" d="M179.5,58.3c-0.6-0.4-1.8-1.1-3.2-1.9c-1.5-0.7-3.3-1.5-5.3-2.3c-1.1-0.4-2.5-0.8-4.1-1.3
		c-0.4-0.1-0.8-0.3-1.2-0.4c-0.4-0.1-0.9-0.2-1.3-0.3c-0.9-0.2-1.8-0.4-2.7-0.7c-1.9-0.5-3.9-0.7-5.9-1.1c-1-0.1-2-0.3-3.1-0.4
		c-1-0.1-2-0.2-3.1-0.2c-4-0.2-7.8,0-10.6,0.2c-1.4,0.2-2.6,0.3-3.4,0.4c-0.9,0.1-1.4,0.2-1.6,0.2c-0.8,0.1-1.6,0.3-2.2,0.4
		c-0.7,0.2-1.2,0.3-1.7,0.5c-1,0.3-1.5,0.6-1.6,0.7c-0.1,0.2,0.4,0.2,1.4,0.1c0.5-0.1,1.2-0.2,2-0.3c0.8-0.1,1.8-0.3,3-0.5
		c0.2-0.1,1.8-0.2,4.2-0.5c2.4-0.2,5.8-0.4,9.5-0.2c3.7,0.1,7.7,0.8,11.6,1.4c1.9,0.5,3.8,0.9,5.6,1.3c1.8,0.5,3.4,1.1,4.9,1.5
		c2.8,1.1,5.4,2,7,2.7C179.3,58.5,180.1,58.7,179.5,58.3z"/>
	<path id="XMLID_50_" fill="#505A78" d="M179.5,66.2c-0.6-0.4-1.8-1.1-3.2-1.9c-1.5-0.7-3.3-1.5-5.3-2.3c-1.1-0.4-2.5-0.8-4.1-1.4
		c-0.4-0.1-0.8-0.3-1.2-0.4c-0.4-0.1-0.9-0.2-1.3-0.3c-0.9-0.2-1.8-0.4-2.7-0.7c-1.9-0.5-3.9-0.7-5.9-1.1c-1-0.1-2-0.3-3.1-0.4
		c-1-0.1-2-0.2-3.1-0.2c-4-0.2-7.8,0-10.6,0.2c-1.4,0.2-2.6,0.3-3.4,0.4c-0.9,0.1-1.4,0.2-1.6,0.2c-0.8,0.1-1.6,0.3-2.2,0.4
		c-0.7,0.2-1.2,0.3-1.7,0.5c-1,0.3-1.5,0.6-1.6,0.7c-0.1,0.1,0.4,0.2,1.4,0.1c0.5-0.1,1.2-0.2,2-0.3c0.8-0.1,1.8-0.3,3-0.5
		c0.2-0.1,1.8-0.2,4.2-0.5c2.4-0.2,5.8-0.4,9.5-0.2c3.7,0.1,7.7,0.8,11.6,1.4c1.9,0.5,3.8,0.9,5.6,1.3c1.8,0.6,3.4,1.1,4.9,1.5
		c2.8,1.1,5.4,2,7,2.7C179.3,66.3,180.1,66.6,179.5,66.2z"/>
	<path id="XMLID_49_" fill="#505A78" d="M178.8-0.4c-0.4-0.5-1.8-1.3-3.3-2.1c-0.9-0.4-2.2-0.9-3.7-1.5c-1.5-0.6-3.2-1.1-4.8-1.6
		c-1.6-0.4-3.1-0.8-4.2-1c-0.6-0.1-1-0.2-1.4-0.3c-0.3-0.1-0.6-0.1-0.6-0.1c-2.7-0.4-3.8,0.4,0.1,1.1c0.2,0,2.5,0.6,5.5,1.3
		c1.4,0.5,3,1,4.6,1.5c1.5,0.6,2.9,1.1,4.2,1.6C177.4-0.7,179.2,0.1,178.8-0.4z"/>
	<path id="XMLID_48_" fill="#505A78" d="M178.8,5.1c-0.4-0.5-1.8-1.3-3.3-2.1c-0.9-0.4-2.2-0.9-3.7-1.5c-1.5-0.6-3.2-1.1-4.8-1.6
		c-1.6-0.4-3.1-0.8-4.2-1c-0.6-0.1-1-0.2-1.4-0.3c-0.3-0.1-0.6-0.1-0.6-0.1c-2.7-0.4-3.8,0.4,0.1,1.1c0.2,0,2.5,0.6,5.5,1.3
		c1.4,0.5,3,1,4.6,1.5c1.5,0.6,2.9,1.1,4.2,1.6C177.4,4.9,179.2,5.6,178.8,5.1z"/>
	<path id="XMLID_47_" fill="#505A78" d="M178.8,11.2c-0.4-0.5-1.8-1.3-3.3-2.1c-0.9-0.4-2.2-0.9-3.7-1.5c-1.5-0.6-3.2-1.1-4.8-1.6
		c-1.6-0.4-3.1-0.8-4.2-1c-0.6-0.1-1-0.2-1.4-0.3c-0.3-0.1-0.6-0.1-0.6-0.1c-2.7-0.4-3.8,0.4,0.1,1.1c0.2,0,2.5,0.6,5.5,1.3
		c1.4,0.5,3,1,4.6,1.5c1.5,0.6,2.9,1.1,4.2,1.6C177.4,10.9,179.2,11.7,178.8,11.2z"/>
	<path id="XMLID_46_" fill="#505A78" d="M178.8,17.4c-0.4-0.5-1.8-1.3-3.3-2.1c-0.9-0.4-2.2-0.9-3.7-1.5c-1.5-0.6-3.2-1.1-4.8-1.6
		c-1.6-0.4-3.1-0.8-4.2-1c-0.6-0.1-1-0.2-1.4-0.3c-0.3-0.1-0.6-0.1-0.6-0.1c-2.7-0.4-3.8,0.4,0.1,1.1c0.2,0,2.5,0.6,5.5,1.3
		c1.4,0.5,3,1,4.6,1.5c1.5,0.6,2.9,1.1,4.2,1.6C177.4,17.1,179.2,17.8,178.8,17.4z"/>
	<g>
		<g id="XMLID_40_" opacity="0.1">
			<circle id="XMLID_41_" fill="#505A78" cx="236.1" cy="50.1" r="11.8"/>
			<path id="XMLID_42_" fill="#505A78" d="M248.3,49.8c0-0.1,0-0.3,0-0.4c0-0.4-0.1-0.8-0.1-1.2c0-0.4-0.1-0.8-0.2-1.2
				c-0.1-0.4-0.2-0.7-0.3-1.1c-0.5-1.4-1.1-2.5-1.5-3.1c-0.7-1.1-1.6-1.9-2.6-2.7c-1-0.8-2-1.3-3.1-1.8c-1.1-0.4-2.4-0.7-3.6-0.8
				c-1.2-0.1-2.4,0-3.6,0.3c-2.3,0.6-4.5,1.9-6.2,3.8c-1.3,1.4-2.4,3.1-2.9,5c-0.5,1.9-0.4,3.9-0.1,5.8c0.4,1.9,1.3,3.7,2.5,5.2
				c1.2,1.5,2.7,2.7,4.4,3.6c1.7,0.8,4,1.2,6.2,1c2.2-0.2,4.3-1,5.8-2c1-0.7,3.3-2.6,4.4-5.3c0.6-1.3,0.9-3,0.9-4.2
				c0-0.3,0-0.6,0-0.8h-0.8c0,0.2,0,0.3-0.1,0.7c-0.1,1.1-0.5,3.4-1.6,5.1c-0.9,1.5-2.1,2.7-3.2,3.5c-1.1,0.8-2,1.1-2.3,1.2
				c-1.9,0.7-3.9,1-5.8,0.7c-1-0.1-1.9-0.4-2.9-0.8c-0.9-0.4-1.7-0.9-2.5-1.5c-1.6-1.1-2.8-2.7-3.6-4.6c-0.7-1.8-0.9-3.7-0.6-5.8
				c0.1-1,0.4-2.1,0.8-3c0.4-1,1-1.9,1.6-2.7c1.4-1.6,3.1-2.8,5.1-3.5c1-0.3,2-0.6,3.1-0.6c1.1-0.1,2.1,0,3.1,0.2
				c2.1,0.5,3.9,1.8,5.3,3.2c0.7,0.7,1.9,1.8,2.8,4.5c0.2,0.8,0.5,1.7,0.5,2.6c0,0.2,0.1,0.4,0.1,0.6h0.8L248.3,49.8z"/>
		</g>
		<g id="XMLID_36_">
			<circle id="XMLID_37_" fill="#FFFFFF" cx="237.9" cy="48.3" r="11.8"/>
			<path id="XMLID_39_" fill="#505A78" d="M250.1,48c0-0.1,0-0.3,0-0.4c0-0.4-0.1-0.8-0.1-1.2c0-0.4-0.1-0.8-0.2-1.2
				c-0.1-0.4-0.2-0.7-0.3-1.1c-0.5-1.4-1.1-2.5-1.5-3.1c-0.7-1.1-1.6-1.9-2.6-2.7c-1-0.8-2-1.3-3.1-1.8c-1.2-0.4-2.4-0.7-3.6-0.8
				c-1.2-0.1-2.4,0-3.6,0.3c-1.2,0.3-2.3,0.8-3.3,1.4c-1.1,0.6-2,1.4-2.9,2.4c-1.3,1.4-2.4,3.1-3,5c-0.5,1.9-0.4,3.9-0.1,5.8
				c0.4,1.9,1.3,3.7,2.5,5.2c1.2,1.5,2.7,2.7,4.4,3.6c1.7,0.8,4,1.2,6.2,1c2.2-0.2,4.3-1,5.8-2c1-0.7,3.3-2.6,4.4-5.3
				c0.6-1.3,0.9-3,0.9-4.2c0-0.3,0-0.6,0-0.8h-0.8c0,0.2,0,0.3-0.1,0.8c-0.1,1.1-0.5,3.3-1.6,5.1c-0.9,1.5-2.1,2.7-3.2,3.5
				s-2,1.1-2.3,1.2c-1.9,0.7-3.9,1-5.8,0.7c-1-0.1-1.9-0.4-2.9-0.8c-0.9-0.4-1.7-0.9-2.5-1.5c-1.6-1.1-2.8-2.7-3.6-4.6
				c-0.7-1.8-0.9-3.7-0.6-5.7c0.1-1,0.4-2,0.8-3c0.4-1,1-1.9,1.6-2.7c1.3-1.6,3.1-2.8,5.1-3.5c1-0.3,2-0.6,3.1-0.6
				c1.1-0.1,2.1,0,3.1,0.2c2.1,0.5,3.9,1.8,5.3,3.2c0.7,0.7,1.9,1.8,2.8,4.5c0.2,0.8,0.5,1.7,0.6,2.6c0,0.2,0.1,0.4,0.1,0.7h0.8
				L250.1,48z"/>
		</g>
		<g>
			<path id="XMLID_357_" fill="#B2D8F7" d="M242.2,53.8h-8.9c-0.6,0-1.1-0.5-1.1-1.1v-4.8c0-0.6,0.5-1.1,1.1-1.1h8.9
				c0.6,0,1.1,0.5,1.1,1.1v4.8C243.3,53.3,242.8,53.8,242.2,53.8z"/>
			<path id="XMLID_38_" fill="#505A78" d="M241.3,46.8c0.1-0.1,0.2-0.5,0.3-1s0.2-1.1,0.1-1.6l0-0.2l0,0l0-0.1c0-0.1,0-0.2-0.1-0.2
				c-0.1-0.3-0.2-0.6-0.4-0.8c-0.3-0.5-0.8-1-1.2-1.3c-1-0.7-2-0.7-2.6-0.7c-2,0.1-3.7,1.8-3.9,3.7c0,0.5,0,0.9,0,1.4v0.2
				c0,0.1-0.1,0-0.1,0h-0.5c-0.4,0-0.8,0.2-1,0.5c-0.1,0.2-0.2,0.4-0.2,0.6v0.4v0.7c0,0.8,0,1.7,0,2.6c0,0.4,0,0.9,0,1.3v0.7v0.3
				c0,0.2,0,0.4,0.1,0.6c0.1,0.3,0.4,0.5,0.7,0.5c0.4,0.1,0.5,0,0.6,0.1l1,0.1c0.7,0,1.4,0.1,2.1,0.1c1.4,0,2.8-0.1,4.1-0.1l2.1,0
				h0.1c0.1,0,0.1,0,0.2,0c0.1,0,0.3-0.1,0.4-0.2c0.2-0.2,0.4-0.4,0.4-0.8c0-0.1,0-0.2,0-0.2V53v-0.3v-0.5c0-1.4,0-2.7,0.1-4
				c0-0.2,0-0.4,0-0.7v-0.2c0-0.1,0-0.2,0-0.3c-0.1-0.2-0.2-0.4-0.4-0.6c-0.2-0.1-0.4-0.2-0.6-0.2c-0.1,0-0.3,0-0.4,0
				c-0.2,0-0.5,0-0.8,0c-0.5,0-1.1,0-1.6,0c-0.8,0-1.6,0-2.3,0c-0.4,0-0.7,0-1.1,0c-0.1,0-0.2,0-0.3,0c-0.1,0-0.1,0-0.1-0.1
				c0-0.2,0-0.4,0-0.6c0-0.2,0-0.4,0-0.6c0-0.2,0-0.3,0.1-0.5c0.2-0.7,1-1.2,1.8-1.1c0.6,0.1,1.1,0.7,1.2,1.1
				c0.1,0.4,0.1,0.9,0.1,1.2c0,1.1,0.5,1.4,0.5-0.2c0-0.2,0.1-0.5,0-1.1c0,0-0.1-0.5-0.2-0.7c-0.2-0.3-0.4-0.6-0.7-0.8
				c-0.6-0.4-1.3-0.5-2-0.3c-0.8,0.2-1.4,0.9-1.6,1.7c-0.1,0.2-0.1,0.4-0.1,0.6v0.5l0,0.5c0,0.2,0,0.5,0.1,0.7
				c0,0.1,0.1,0.2,0.2,0.2c0.1,0.1,0.2,0.1,0.3,0.1c0.2,0,0.5,0,0.6,0h0.8c1.6,0,3.1,0,4.5,0c0.4,0,0.9,0,0.9,0
				c0.1,0,0.1,0.1,0.1,0.2l0,0.5c0,0.8,0,1.5,0,2.2c0,0.8,0,1.5,0,2.2c0,0.3,0,0.9,0,0.9c0,0.1-0.1,0.1-0.2,0.1h-0.5
				c-1.4,0-2.9-0.1-4.5-0.1c-0.8,0-1.6,0-2.4,0l-2.3,0c-0.1,0-0.1,0-0.1-0.5l0-1.2l0-2.5l0-1.2c0-0.6,0-0.5,0-0.5c0,0,0.7,0,1.4,0
				c0.1,0,0.2,0,0.2,0l0-0.3l0-0.5l0-0.7l0-0.6c0-0.2,0-0.4,0.1-0.5c0.1-0.3,0.2-0.7,0.4-1c0.4-0.6,0.9-1.1,1.5-1.3
				c0.3-0.1,0.7-0.3,1.3-0.3c0.6,0,1.3,0.1,2.1,0.7c0.4,0.4,0.8,0.9,1.1,1.4l0.2,0.5c0,0.1,0.1,0.2,0.1,0.3
				C241.2,45.8,241.2,46.9,241.3,46.8z"/>
			<g id="XMLID_34_" opacity="0.1">
				<path id="XMLID_2_" fill="#505A78" d="M236.6,47.8V53c0,0.4-0.3,0.7-0.6,0.7h-2.7c-0.4,0-0.6-0.3-0.6-0.7v-5.2
					c0-0.4,0.3-0.7,0.6-0.7h2.7C236.3,47.1,236.6,47.4,236.6,47.8z"/>
				<path id="XMLID_30_" fill="#505A78" d="M236,54.4h-2.7c-0.7,0-1.3-0.6-1.3-1.3v-5.2c0-0.7,0.6-1.3,1.3-1.3h2.7
					c0.7,0,1.3,0.6,1.3,1.3V53C237.3,53.8,236.7,54.4,236,54.4z M233.2,47.8l0,5.2l2.7,0l0-5.2C235.9,47.8,233.2,47.8,233.2,47.8z"
					/>
			</g>
		</g>
	</g>
	<g>
		<g id="XMLID_18_" opacity="0.15">
			<path id="XMLID_29_" fill="#505A78" d="M145.6,11.3l-6.6,3.4c-0.4,0.2-1,0.2-1.4,0l-6.6-3.4c-1-0.5-1.7-1.6-1.7-2.8V-5.2
				c0-0.4,0.3-0.8,0.8-0.8h3.7c0,0,0,0,0.1,0l4.5-1.6l4.5,1.6c0,0,0,0,0.1,0h3.7c0.4,0,0.8,0.3,0.8,0.8V8.5
				C147.3,9.7,146.7,10.7,145.6,11.3z"/>
			<path id="XMLID_31_" fill="#505A78" d="M147.1,10.4c0.3-0.5,0.5-1.1,0.6-1.6c0-0.6,0-1,0-1.5c0-0.9,0-1.8,0-2.6c0-1.6,0-3,0-4.2
				c0-2.4,0-4,0-5.4c0-0.2,0-0.3,0-0.6c-0.1-0.2-0.2-0.5-0.4-0.7c-0.2-0.2-0.4-0.3-0.7-0.3c-0.2,0-0.4,0-0.5,0c-0.7,0-1.3,0-2.1,0
				c-0.4,0-0.7,0-1.1,0c-0.4-0.1-0.8-0.3-1.2-0.4c-1-0.3-2.1-0.7-3.4-1.2c0.2,0.1,0.3,0.1,0.3,0.1c0,0-0.1,0-0.2-0.1
				c0,0-0.1,0-0.1-0.1c-0.1,0-0.1,0-0.2,0.1c-0.3,0.1-0.9,0.3-1.7,0.6c-0.4,0.1-0.8,0.3-1.3,0.5c-0.2,0.1-0.5,0.2-0.8,0.3
				c-0.1,0.1-0.3,0.1-0.4,0.2l-0.1,0h-0.2c-0.6,0-1.3,0-2.1,0c-0.4,0-0.8,0-1.1,0c-0.1,0-0.2,0-0.3,0c-0.2,0-0.3,0.1-0.5,0.1
				c-0.3,0.2-0.5,0.4-0.6,0.7c-0.1,0.1-0.1,0.3-0.1,0.4v0.3v0.6c0,0.4,0,0.8,0,1.1c0,0.8,0,1.5,0,2.2c0,1.4,0,2.7,0,4
				c0,1.3,0,2.5,0,3.7c0,0.6,0,1.2,0,1.7c0,0.6,0.2,1.3,0.5,1.8c0.3,0.6,0.8,1,1.3,1.3l1.5,0.8c1,0.5,2,1,3,1.5
				c0.5,0.3,1,0.5,1.5,0.8c0.3,0.1,0.5,0.3,0.8,0.4c0.3,0.2,0.7,0.2,1.1,0.1c0.2,0,0.4-0.1,0.5-0.2l0.4-0.2c0.3-0.1,0.6-0.3,0.8-0.4
				c0.6-0.3,1.1-0.6,1.7-0.9c1.6-0.8,2.7-1.5,3.7-2l-0.4-0.7c-0.7,0.4-1.7,0.9-3.7,1.9c-0.6,0.3-1.2,0.6-1.8,0.9l-0.9,0.5l-0.2,0.1
				c-0.1,0-0.1,0.1-0.2,0.1c-0.1,0-0.2,0.1-0.3,0.1c-0.1,0-0.2,0-0.4-0.1c-0.1,0-0.1,0-0.2-0.1l-0.2-0.1l-0.9-0.5
				c-0.6-0.3-1.2-0.6-1.8-1c-1.2-0.6-2.4-1.3-3.7-1.9c-0.5-0.3-0.9-0.8-1.1-1.3c-0.1-0.3-0.2-0.6-0.2-0.9V7.5c0-2.9,0-5.8,0-8.7
				v-2.2v-1.1c0-0.4,0-0.8,0-0.9c0-0.1,0.1-0.1,0.2-0.1c0,0,0.1,0,0.1,0h0.3h1.1l2.2,0c0.1,0,0.3,0,0.4-0.1l0.2-0.1l0.4-0.1
				c0.3-0.1,0.5-0.2,0.8-0.3c0.5-0.2,1-0.3,1.4-0.5c0.8-0.3,1.3-0.5,1.4-0.5c0.8,0.3,1.6,0.6,2.4,0.8c0.4,0.2,0.8,0.3,1.2,0.4
				l0.6,0.2c0.1,0,0.2,0,0.3,0.1h0.2h0.3c0.9,0,1.7,0,2.5,0h0.6c0.1,0,0.2,0,0.2,0.1c0.1,0.1,0.1,0.1,0.1,0.2v0.6c0,3.1,0,5.9,0,8.3
				c0,1.2,0,2.3,0,3.2c0,0.5,0,0.9,0,1.3c0,0.4,0,0.7-0.1,1c-0.4,1.2-1.2,1.5-1.3,1.7l0.4,0.7c0,0,0.4-0.2,0.7-0.5
				C146.8,10.8,147.1,10.4,147.1,10.4z"/>
		</g>
		<g id="XMLID_16_">
			<path id="XMLID_17_" fill="#FFFFFF" d="M148.3,10.7l-7.2,3.7c-0.5,0.3-1.1,0.3-1.6,0l-7.2-3.7c-1.1-0.6-1.8-1.8-1.8-3V-7.2
				c0-0.5,0.4-0.8,0.8-0.8h4c0,0,0.1,0,0.1,0l3.2-1.1c1-0.4,2.2-0.4,3.2,0l3.2,1.1c0,0,0.1,0,0.1,0h4c0.5,0,0.9,0.4,0.9,0.8V7.7
				C150.2,9,149.5,10.1,148.3,10.7z"/>
			<path id="XMLID_28_" fill="#505A78" d="M149.9,9.8c0.3-0.4,0.5-0.9,0.6-1.4c0.1-0.5,0.1-1,0.1-1.4c0-0.9,0-1.7,0-2.4
				c0-1.5,0-2.9,0-4c0-2.4,0-4.1,0-5.5c0-0.7,0-1.4,0-2v-0.2c0-0.1,0-0.2-0.1-0.3c-0.1-0.2-0.2-0.4-0.3-0.6
				c-0.2-0.2-0.4-0.3-0.6-0.3c-0.1,0-0.2,0-0.3,0h-0.2c-1.1,0-2.3,0-3.7,0c-0.1,0-0.4-0.2-1-0.4c-0.6-0.2-1.4-0.5-2.6-0.9
				c-0.6-0.2-1.4-0.2-2.2-0.1c-0.9,0.2-1.6,0.5-2.5,0.8c-0.4,0.2-0.9,0.3-1.4,0.5c-0.2,0.1,0,0-0.2,0h-0.4c-0.3,0-0.6,0-0.8,0
				c-0.6,0-1.2,0-1.8,0h-0.5c-0.2,0-0.3,0-0.6,0c-0.5,0.1-0.9,0.5-1.1,1c-0.1,0.4,0,0.5,0,0.8v0.6c0,0.4,0,0.8,0,1.2
				c0,0.8,0,1.6,0,2.4c0,1.5,0,3,0,4.4c0,1.4,0,2.7,0,4c0,0.6,0,1.3,0,1.9c0,0.7,0.2,1.4,0.5,2c0.3,0.6,0.9,1.1,1.5,1.4l1.6,0.8
				c1.1,0.6,2.1,1.1,3.2,1.7c0.6,0.3,1.1,0.6,1.7,0.9c0.3,0.2,0.5,0.3,0.9,0.4c0.4,0.2,0.8,0.2,1.2,0.1c0.2,0,0.4-0.1,0.6-0.2
				l0.4-0.2c0.3-0.2,0.6-0.3,0.9-0.5c0.6-0.3,1.2-0.6,1.8-1c1.7-0.9,3-1.6,4-2.1l-0.4-0.7c-0.8,0.4-1.8,1-4,2.1
				c-0.6,0.3-1.3,0.7-1.9,1l-1,0.5c-0.4,0.2-0.5,0.3-0.8,0.3c-0.1,0-0.3,0-0.4-0.1c-0.1,0-0.1-0.1-0.2-0.1l-0.2-0.1l-1-0.5
				c-0.7-0.3-1.3-0.7-2-1c-1.3-0.7-2.7-1.4-4-2.1c-0.6-0.3-1-0.8-1.3-1.5c-0.1-0.3-0.2-0.6-0.2-1V6.6c0-3.1,0-6.3,0-9.5v-2.4v-1.2
				c0-0.4,0-0.9,0-1c0-0.1,0.1-0.2,0.2-0.2c0,0,0.1,0,0.1,0h0.3h1.2l2.4,0h0.1c0.1,0,0.2,0,0.2,0c0.1,0,0.2-0.1,0.2-0.1l0.4-0.2
				l0.9-0.3c0.6-0.2,1.1-0.4,1.7-0.6c1-0.4,2.1-0.3,2.9,0c1.8,0.6,3.1,1.1,3.3,1.2c0.1,0,0.2,0.1,0.3,0h0.2h0.3h0.7
				c0.4,0,0.9,0,1.3,0s0.9,0,1.3,0c0.1,0,0.2,0,0.2,0s0.1,0,0.1,0.1c0.1,0.1,0.1,0.1,0.2,0.2c0,1.6,0,3.1,0,4.5c0,2.9,0,5.3,0,7.4
				c0,1,0,1.9,0,2.7c0,0.8-0.1,1.3-0.3,1.8c-0.5,0.9-1.1,1.2-1.2,1.2l0.4,0.7c0,0,0.4-0.2,0.8-0.5C149.6,10.2,149.9,9.8,149.9,9.8z"
				/>
		</g>
		<g>
			<g>
				<g id="XMLID_352_">
					<path id="XMLID_120_" fill="#CCE5FA" d="M140.4-7.7l-4.1,1.4c-0.2,0.1-0.4,0.1-0.6,0.1h-2.8c-0.1,0-0.2,0.1-0.2,0.2v7.5h7.8
						L140.4-7.7L140.4-7.7z"/>
				</g>
				<g id="XMLID_351_">
					<path id="XMLID_106_" fill="#99CBF5" d="M147.9-6.1h-2.8c-0.2,0-0.4-0.1-0.6-0.1l-4.1-1.4v9.3h7.8v-7.5
						C148.1-6,148.1-6.1,147.9-6.1z"/>
				</g>
				<g id="XMLID_350_">
					<path id="XMLID_78_" fill="#CCE5FA" d="M140.4,12.4C140.4,12.4,140.5,12.4,140.4,12.4l6.9-3.5c0.5-0.3,0.9-0.8,0.9-1.4V1.6
						h-7.8V12.4z"/>
				</g>
				<g id="XMLID_349_">
					<path id="XMLID_62_" fill="#99CBF5" d="M132.6,1.6v5.8c0,0.6,0.3,1.2,0.9,1.4l6.8,3.5c0,0,0.1,0,0.1,0V1.6H132.6z"/>
				</g>
			</g>
		</g>
	</g>
	<path id="XMLID_27_" fill="#505A78" d="M197.4,6.5c0.5-0.1,1.4-0.4,2.4-0.8c0.5-0.2,1.1-0.4,1.7-0.7c0.6-0.2,1.2-0.4,1.9-0.7
		c0.7-0.3,1.6-0.6,2.6-1c1-0.3,2.2-0.7,3.4-1.1c0.6-0.2,1.2-0.4,1.9-0.6c0.6-0.2,1.3-0.3,1.9-0.5c1.3-0.3,2.6-0.6,3.9-0.9
		c2.6-0.4,5-0.8,6.9-1c1.8-0.2,3.1-0.2,3.3-0.3c2.2-0.1,3.6-0.4,3.8-0.6c0.1-0.2-1.1-0.6-4.3-0.4c-0.1,0-1.2,0.1-2.9,0.2
		c-1.6,0.2-3.9,0.5-6.3,0.9c-1.2,0.2-2.5,0.6-3.8,0.8c-1.3,0.3-2.6,0.6-3.9,1c-1.3,0.4-2.5,0.8-3.7,1.2C205,2.6,204,3,203,3.4
		c-1.9,0.8-3.5,1.7-4.6,2.2C197.4,6.3,196.9,6.6,197.4,6.5z"/>
	<path id="XMLID_26_" fill="#505A78" d="M197.5-1.1c1.1-0.2,3.6-1.4,6.5-2.4c0.8-0.3,1.8-0.7,2.9-1.1c1.1-0.4,2.4-0.8,3.7-1.2
		c0.7-0.2,1.4-0.4,2.1-0.6c0.7-0.2,1.4-0.3,2.1-0.5s1.4-0.3,2.2-0.5c0.7-0.2,1.5-0.2,2.2-0.3c2.9-0.4,5.5-0.8,7.6-0.9
		c2-0.1,3.4-0.1,3.6-0.1c2.4,0,4-0.2,4.2-0.4c0.2-0.2-1.2-0.6-4.7-0.6c-0.3,0-4.8-0.1-10.2,0.9c-0.7,0.1-1.4,0.2-2.1,0.3
		c-0.7,0.1-1.4,0.3-2.1,0.5c-1.4,0.3-2.9,0.7-4.3,1c-2.8,0.9-5.5,1.7-7.6,2.7c-1,0.4-2,0.8-2.9,1.3c-0.8,0.4-1.6,0.8-2.2,1.2
		C197.4-1.4,196.9-1,197.5-1.1z"/>
	<path id="XMLID_25_" fill="#505A78" d="M197.5,14.1c0.8-0.2,2-0.7,3.5-1.3c1.6-0.6,3.4-1.3,5.4-2c1.1-0.3,2.5-0.8,4.1-1.3
		c0.4-0.1,0.8-0.3,1.2-0.4c0.4-0.1,0.9-0.2,1.3-0.3c0.9-0.2,1.8-0.4,2.7-0.6c1.9-0.5,3.9-0.7,5.9-1c1-0.1,2-0.3,3-0.4
		c1-0.1,2-0.2,3-0.2c3.9-0.2,7.7,0,10.4,0.2c1.4,0.2,2.5,0.3,3.4,0.4c0.8,0.1,1.4,0.2,1.5,0.2c0.8,0.1,1.6,0.2,2.2,0.3
		c0.7,0.1,1.2,0.2,1.7,0.3c1,0.1,1.6,0.1,1.8,0c0.1-0.1-0.2-0.3-1.2-0.6c-0.5-0.2-1.1-0.3-2-0.6c-0.8-0.2-1.9-0.4-3.1-0.6
		c-0.2-0.1-1.8-0.3-4.3-0.6c-2.5-0.2-5.9-0.5-9.6-0.3c-3.8,0.1-7.8,0.7-11.8,1.4c-1.9,0.5-3.9,0.9-5.6,1.4c-1.8,0.6-3.4,1.1-5,1.6
		c-2.9,1.2-5.4,2.2-6.9,3.1C197.5,13.8,196.8,14.3,197.5,14.1z"/>
	<path id="XMLID_24_" fill="#505A78" d="M197.5,22c0.7-0.2,1.9-0.6,3.3-1.2c1.4-0.6,3.2-1.2,5-1.9c1-0.4,2.4-0.7,3.8-1.2
		c0.7-0.2,1.5-0.5,2.3-0.7c0.8-0.2,1.7-0.4,2.5-0.6c0.9-0.2,1.8-0.4,2.7-0.6c0.9-0.2,1.9-0.3,2.8-0.4c0.9-0.1,1.9-0.3,2.8-0.4
		c0.5-0.1,0.9-0.1,1.4-0.2c0.5,0,0.9-0.1,1.4-0.1c7.4-0.6,13.8,0.2,14.3,0.3c1.5,0.2,2.8,0.3,3.7,0.4c0.9,0.1,1.5,0,1.6-0.1
		c0.1-0.1-0.2-0.3-1.2-0.6c-0.9-0.3-2.5-0.6-4.8-0.8c-0.1,0-0.5-0.1-1.2-0.1c-0.7-0.1-1.6-0.1-2.8-0.2c-1.2-0.1-2.5-0.1-4.1-0.2
		c-1.5,0-3.2,0-4.9,0.1c-1.8,0.1-3.6,0.4-5.4,0.6c-1.8,0.3-3.7,0.5-5.5,1c-0.9,0.2-1.8,0.4-2.7,0.6c-0.4,0.1-0.9,0.2-1.3,0.3
		c-0.4,0.1-0.8,0.3-1.2,0.4c-1.6,0.6-3.2,1-4.6,1.6c-1.3,0.6-2.6,1.1-3.7,1.6c-1.1,0.5-2,1-2.8,1.4C197.5,21.7,196.8,22.1,197.5,22z
		"/>
	<path id="XMLID_23_" fill="#505A78" d="M197.5,29.5c0.8-0.2,2-0.7,3.5-1.3c1.6-0.6,3.4-1.3,5.4-2c1.1-0.3,2.5-0.8,4.1-1.3
		c0.4-0.1,0.8-0.3,1.2-0.4c0.4-0.1,0.9-0.2,1.3-0.3c0.9-0.2,1.8-0.4,2.7-0.6c1.9-0.5,3.9-0.7,5.9-1c1-0.1,2-0.3,3-0.4
		c1-0.1,2-0.2,3-0.2c3.9-0.2,7.7,0,10.4,0.2c1.4,0.2,2.5,0.3,3.4,0.4c0.8,0.1,1.4,0.2,1.5,0.2c0.8,0.1,1.6,0.2,2.2,0.3
		c0.7,0.1,1.2,0.2,1.7,0.3c1,0.1,1.6,0.1,1.8,0c0.1-0.1-0.2-0.3-1.2-0.6c-0.5-0.2-1.1-0.3-2-0.6c-0.8-0.2-1.9-0.4-3.1-0.6
		c-0.2-0.1-1.8-0.3-4.3-0.6c-2.5-0.2-5.9-0.5-9.6-0.3c-3.8,0.1-7.8,0.7-11.8,1.4c-1.9,0.5-3.9,0.9-5.6,1.4c-1.8,0.6-3.4,1.1-5,1.6
		c-2.9,1.2-5.4,2.2-6.9,3.1C197.5,29.2,196.8,29.7,197.5,29.5z"/>
	<g>
		<path id="XMLID_22_" fill="#505A78" d="M198.3,48.3c0.7,0,2.1-0.6,3.7-1.2c0.9-0.3,2.2-0.8,3.7-1.4c1.5-0.5,3.1-1,4.7-1.5
			c1.6-0.4,3.1-0.7,4.2-1c0.6-0.1,1-0.2,1.4-0.3c0.3-0.1,0.6-0.1,0.6-0.1c2.6-0.4,3.5-1.7-0.5-1c-0.2,0-2.6,0.6-5.6,1.2
			c-1.5,0.5-3.1,1-4.6,1.5c-1.5,0.6-3,1.2-4.2,1.7C199.4,47.3,197.7,48.3,198.3,48.3z"/>
		<path id="XMLID_21_" fill="#505A78" d="M198.3,53.8c0.7,0,2.1-0.6,3.7-1.2c0.9-0.3,2.2-0.8,3.7-1.4c1.5-0.5,3.1-1,4.7-1.5
			c1.6-0.4,3.1-0.7,4.2-1c0.6-0.1,1-0.2,1.4-0.3c0.3-0.1,0.6-0.1,0.6-0.1c2.6-0.4,3.5-1.7-0.5-1c-0.2,0-2.6,0.6-5.6,1.2
			c-1.5,0.5-3.1,1-4.6,1.5c-1.5,0.6-3,1.2-4.2,1.7C199.4,52.8,197.7,53.8,198.3,53.8z"/>
		<path id="XMLID_20_" fill="#505A78" d="M198.3,59.9c0.7,0,2.1-0.6,3.7-1.2c0.9-0.4,2.2-0.9,3.7-1.4c1.5-0.5,3.1-1,4.7-1.5
			c1.6-0.4,3.1-0.7,4.2-1c0.6-0.1,1-0.2,1.4-0.3c0.3-0.1,0.6-0.1,0.6-0.1c2.6-0.4,3.5-1.7-0.5-1c-0.2,0-2.6,0.6-5.6,1.2
			c-1.5,0.5-3.1,1-4.6,1.5c-1.5,0.6-3,1.2-4.2,1.7C199.4,58.9,197.7,59.9,198.3,59.9z"/>
		<path id="XMLID_19_" fill="#505A78" d="M198.3,66.1c0.7,0,2.1-0.6,3.7-1.2c0.9-0.4,2.2-0.9,3.7-1.4c1.5-0.5,3.1-1,4.7-1.5
			c1.6-0.4,3.1-0.7,4.2-1c0.6-0.1,1-0.2,1.4-0.3c0.3-0.1,0.6-0.1,0.6-0.1c2.6-0.4,3.5-1.6-0.5-1c-0.2,0-2.6,0.6-5.6,1.2
			c-1.5,0.5-3.1,1-4.6,1.5c-1.5,0.6-3,1.2-4.2,1.7C199.4,65.1,197.7,66.1,198.3,66.1z"/>
	</g>
	<g opacity="0.15">
		<g id="XMLID_13_">
			<path id="XMLID_14_" fill="#505A78" d="M237.1,1.4l3.6-3.2l3.6,4c0.1,0.1,0.2,0,0.2-0.1v-12.3v-12.5c0,0,0-0.1-0.1-0.1
				c-2.4-0.6-4.9-1.1-7.4-1.5c-0.1,0-0.1,0-0.1,0.1v11.9V1.4C236.9,1.4,237,1.5,237.1,1.4z"/>
			<path id="XMLID_15_" fill="#505A78" d="M237.4-7c0-3.2,0-6.1,0.1-9c0-1.5,0-2.9,0-4.4c0-0.7,0-1.5,0-2.2c0-0.3,0-0.6,0-0.9
				c0,0,0-0.1,0-0.1l0.1,0c0.3,0.1,0.7,0.1,1.1,0.2c1.6,0.3,3.3,0.7,4.9,1.1c0.1,0,0.1,0,0.1,0l0,0c0,0,0,0,0,0.1l0,1.3l0,2.5
				c0,3.4,0,6.8,0,10.1c0,1.6,0,3.5,0.1,5.4c0,0.9,0,1.9,0,2.8c0,0.2,0,0.4,0,0.6l0,0.1l0,0.1c0,0.1,0,0.1,0,0c0,0,0,0-0.1-0.1
				c0,0-0.1-0.1-0.1-0.1c-0.2-0.2-0.4-0.4-0.6-0.7c-0.3-0.3-0.6-0.6-0.9-0.9c-0.2-0.2-0.3-0.4-0.5-0.6c-0.2-0.2-0.6-0.7-0.9-1
				c-0.8,0.7-2.2,2-3.4,3.1c-0.2,0.2-0.4,0.3-0.6,0.5l0.7,0.8c0.1-0.1,0.3-0.3,0.6-0.5c0.9-0.8,2-1.8,2.6-2.3c1.6,1.8,3,3.3,3.1,3.4
				c0.3,0.3,0.5,0.3,0.7,0.4c0.1,0,0.1,0,0.3,0c0.1-0.1,0.1-0.1,0.1-0.2c0.1-0.1,0.1-0.2,0.2-0.4c0.1-0.2,0-0.4,0-0.6
				c0-0.7,0-1,0-1.2c0.1-8.1-0.1-14.3,0.1-22.3l0-0.7c0-0.3,0-0.6-0.3-0.7c-0.3-0.1-0.6-0.2-0.8-0.3l-0.5-0.1
				c-0.6-0.2-1.3-0.3-1.9-0.5c-0.6-0.1-1.3-0.3-2-0.4l-1-0.2l-1.2-0.2c-0.4-0.1-0.6,0-0.9,0c-0.3,0.1-0.4,0.3-0.4,0.6
				c0,0.2,0,0.3,0,0.5v0.4v0.5v2l0,4.1c0,2.7,0,5.4,0,8.1c0,0.3,0,5.1,0.1,9.6c0,0.1,0,0.2,0,0.3l0,0.1l0,0.1c0,0.1,0.1,0.2,0.1,0.3
				c0.2,0.3,0.7,0.4,1,0.1L237,1.4c0,0,0,0,0,0s0,0,0,0c0,0,0,0,0,0l0,0c0.8,0,0.2,0,0.4,0l0,0l0,0l0,0l0,0l0,0v0v0
				c0-0.1,0-0.2,0-0.3C237.5-2.1,237.4-5.6,237.4-7z"/>
		</g>
	</g>
	<g>
		<g id="XMLID_3_">
			<path id="XMLID_4_" fill="#92E3A5" d="M238.7-0.4l3.6-3.2l3.6,4c0.1,0.1,0.2,0,0.2-0.1V-12v-12.5c0,0,0-0.1-0.1-0.1
				c-2.4-0.6-4.9-1.1-7.4-1.5c-0.1,0-0.1,0-0.1,0.1V-14v13.5C238.6-0.4,238.7-0.3,238.7-0.4z"/>
			<path id="XMLID_5_" fill="#505A78" d="M239.1-8.9c0-3.2,0-6.1,0.1-9c0-1.5,0-2.9,0-4.4c0-0.7,0-1.5,0-2.2c0-1-0.1-1,0.2-1
				c0.3,0.1,0.7,0.1,1.1,0.2c1.6,0.3,3.3,0.7,4.9,1.1c0.1,0,0.1,0,0.1,0l0,0c0,0,0,0,0,0l0,1.3l0,2.5c0,3.4,0,6.8,0,10.1
				c0,1.6,0,3.5,0.1,5.4c0,0.9,0,1.9,0,2.8v0.3v0.2v0l0,0.1l0,0.1c0,0.1,0,0.1,0,0.1c0,0-0.1-0.1-0.1-0.1c0,0-0.1-0.1-0.1-0.1
				c-0.1-0.1-0.2-0.2-0.3-0.4c-0.3-0.3-0.6-0.7-1-1.1c-0.2-0.2-0.4-0.4-0.6-0.6c-0.1-0.2-0.3-0.3-0.4-0.5c-0.2-0.2-0.4-0.4-0.6-0.6
				c-0.8,0.7-2.2,2-3.4,3.1c-0.2,0.2-0.4,0.4-0.6,0.5l0.7,0.8c0.1-0.1,0.3-0.3,0.6-0.5c0.9-0.8,2-1.8,2.6-2.3c0.5,0.6,1,1.1,1.4,1.6
				c0.3,0.3,0.6,0.7,0.9,1c0.2,0.2,0.4,0.5,0.6,0.7c0.2,0.3,0.4,0.4,0.6,0.4c0.1,0.1,0.2,0.1,0.3,0.1c0.1,0,0.2,0,0.2-0.1l0.1-0.1
				c0.1-0.2,0.3-0.4,0.2-0.8c0-0.7,0-1.2,0-1.4c0.1-8.1-0.1-14.3,0.1-22.3l0-0.7c0-0.3-0.1-0.6-0.3-0.7c-0.3-0.1-0.5-0.2-0.8-0.3
				l-0.5-0.1c-0.6-0.2-1.3-0.3-1.9-0.5c-0.6-0.1-1.3-0.3-1.9-0.4l-1-0.2l-1.2-0.2c-0.4-0.1-0.6,0-0.9,0c-0.1,0-0.2,0.2-0.3,0.2
				c-0.1,0.1-0.1,0.2-0.2,0.3c0,0.3,0,0.7,0,1v0.5v2l0,4.1c0,2.7,0,5.4,0,8.1c0,0.3,0,5.1,0.1,9.6c0,0.1,0,0.2,0,0.3l0,0.1l0,0.1
				c0,0,0,0.1,0,0.2s0,0.1,0.1,0.1c0.2,0.4,0.8,0.4,1.1,0.2l-0.5-0.5c0,0,0,0,0,0s0,0,0,0v0l0,0l0,0c-0.1,0,0.8,0,0.4,0l0,0l0,0l0,0
				l0,0v0v0c0-0.1,0-0.2,0-0.3C239.2-3.9,239.1-7.4,239.1-8.9z"/>
		</g>
	</g>
	<g>
		<path id="XMLID_12_" fill="#505A78" d="M228.7-59.5c0.6-0.4,0.2-1.3,0.1-1.6c-0.2-0.7-0.4-1.3-0.6-2s-0.4-1.5-0.6-2.2
			c-0.1-0.3-0.4-0.8-0.5-1.1c-0.1-0.2-0.5-0.9-0.6-1.2c-0.1-0.4-1.2-0.1-1.1,0.4c0.1,0.3,0.5,1.4,0.5,1.5c0.2,0.9,0.6,1.4,0.7,2.4
			c0.1,0.9,0.6,1.7,0.8,2.6C227.5-60.8,228.1-59.1,228.7-59.5z"/>
		<path id="XMLID_11_" fill="#505A78" d="M231.2-62.9c-0.1-0.8-1-0.8-1.2-0.9c-0.6-0.2-1.2-0.2-1.9-0.5c-0.6-0.2-1.3-0.4-2-0.5
			c-0.3,0-0.8-0.1-1.1-0.1c-0.2,0-0.9,0-1.2-0.1c-0.3-0.1-0.6,1-0.2,1.1c0.3,0,1.3,0.2,1.4,0.3c0.8,0.2,1.4,0.1,2.2,0.5
			c0.8,0.3,1.6,0.3,2.4,0.5C229.7-62.4,231.3-62.2,231.2-62.9z"/>
		<path id="XMLID_6_" fill="#505A78" d="M230.1-66.5c-0.7-0.3-1.2,0.4-1.4,0.6c-0.5,0.5-0.8,0.9-1.4,1.3c-0.5,0.4-1,0.9-1.4,1.4
			c-0.2,0.2-0.4,0.6-0.6,0.9c-0.1,0.2-0.5,0.8-0.7,1c-0.2,0.2,0.5,1.1,0.9,0.7c0.2-0.2,0.9-1,0.9-1c0.6-0.5,0.9-1.2,1.6-1.6
			c0.7-0.5,1.1-1.2,1.7-1.8C229.6-65,230.7-66.2,230.1-66.5z"/>
	</g>
	<g>
		<path id="XMLID_7_" fill="#505A78" d="M135.3,125.2c0.8,0,1.2-1.3,1.4-1.7c0.5-0.9,0.8-1.8,1.3-2.7c0.5-0.9,1-1.9,1.3-2.9
			c0.2-0.5,0.4-1.1,0.5-1.6c0.1-0.3,0.4-1.4,0.6-1.8c0.2-0.5-0.8-1.1-1.1-0.4c-0.2,0.4-0.8,1.9-0.9,2c-0.6,1.1-0.8,2.1-1.4,3.2
			c-0.7,1.1-1,2.3-1.6,3.4C135.6,122.9,134.6,125.2,135.3,125.2z"/>
		<path id="XMLID_8_" fill="#505A78" d="M141.1,124.1c0.4-0.7-0.5-1.6-0.6-1.9c-0.5-0.8-1.1-1.4-1.5-2.2c-0.5-0.8-1.1-1.6-1.6-2.3
			c-0.3-0.4-0.7-0.8-1-1.1c-0.2-0.2-0.9-1-1.2-1.3c-0.3-0.4-1.3,0.2-0.9,0.7c0.2,0.3,1.1,1.4,1.2,1.6c0.6,1,1.3,1.5,1.9,2.5
			c0.5,1,1.4,1.8,2,2.8C139.3,122.9,140.8,124.7,141.1,124.1z"/>
		<path id="XMLID_10_" fill="#505A78" d="M143.3,119.1c-0.3-0.7-1.6-0.4-1.9-0.4c-1,0-1.7,0.2-2.7,0.1c-0.9,0-1.9,0.1-2.8,0.2
			c-0.4,0.1-1.1,0.2-1.5,0.3c-0.3,0.1-1.3,0.3-1.7,0.3c-0.5,0.1-0.5,1.2,0.2,1.1c0.4,0,1.8-0.2,2-0.2c1.1,0,2-0.4,3.1-0.3
			c1.1,0.1,2.3-0.2,3.4-0.3C141.4,120.1,143.6,119.8,143.3,119.1z"/>
	</g>
	<path id="XMLID_9_" fill="#505A78" d="M262.9-8.4c0.1,0.2,0.6,0.5,1.4,0.9c0.3,0.2,0.8,0.4,1,0.6c0.3,0.2,0.5,0.5,0.6,0.8
		c0,0.1,0,0.1,0.1,0.2l0,0.1c0,0.2,0.1,0.3,0.1,0.5l0,1.4c0,1.8,0,3.7,0,5.5c0,3.7,0,7.3-0.1,10.7c0,6.7-0.1,12.5-0.1,15.7
		c0,11.7-0.1,22.7-0.1,33.6c0,5.6,0,11.2,0,16.7l0,4.2v1v0.5v0.3l0,0.2c0,0.4-0.3,0.8-0.7,0.9c-0.1,0-0.2,0.1-0.3,0.1
		c0,0-0.1,0-0.1,0l-0.3,0l-1-0.1l-2.1-0.1c-1.4-0.1-2.8-0.1-4.2-0.2c-10.8-0.6-21.8-0.9-33.4-1.6c-4.4-0.3-8.8-0.5-13.2-0.8
		l-3.3-0.2l-1.7-0.1c-0.6,0-1.1-0.1-1.7-0.1c-1.3,0-2.5,0.4-3.6,1c-0.6,0.3-1.1,0.7-1.5,1.1c-0.5,0.4-0.9,0.9-1.2,1.3
		c-1.4,1.5-3.2,2.6-5.1,3.1s-4.1,0.6-6.1,0c-2-0.5-3.8-1.6-5.2-3.2c-1.5-1.8-4-3.1-6.5-3c-8.9,0.6-17.7,1.1-26.5,1.7
		c-8.9,0.5-17.2,1-25.9,1.5c-2.1,0.1-4.3,0.3-6.7,0.4c-0.6,0-1.2,0.1-1.7,0.1c-0.3,0-0.7-0.2-0.9-0.4c-0.1-0.1-0.2-0.3-0.2-0.5
		c0-0.1,0-0.5,0-0.8c0-0.6,0-1.2,0-1.8c0-4.9,0-10.1-0.1-15.1c0-10,0-20,0-28.5c0-5.8,0-18.8,0-32.1c0-3.1,0-6.3-0.1-9.6l0-2.5
		l0-1.2c0-0.1,0-0.3,0.1-0.4l0-0.1c0-0.1,0.1-0.2,0.2-0.3c0.1-0.2,0.3-0.3,0.5-0.4c0.2-0.1,0.4-0.2,0.6-0.2c1.6-0.6,1.9-1.5-0.5-0.6
		c-0.3,0.1-1.1,0.3-1.5,1l-0.1,0.1l0,0l0,0.1l-0.1,0.2c-0.1,0.3-0.1,0.6-0.1,0.8c0,0.9,0,1.8,0,2.8c0,1.9,0,3.8,0,5.7
		c0,3.8,0,7.7-0.1,11.4c0,17.1,0,33.8,0,36.7c0,10.3,0,19.9,0,29.3c0,1.2,0,2.5,0,3.7v0.9c0,0.3,0,0.6,0,1c0.1,0.8,0.6,1.6,1.3,2
		c0.4,0.2,0.8,0.3,1.2,0.3c0.4,0,0.6,0,1-0.1l1.8-0.1c1.2-0.1,2.4-0.1,3.7-0.2c4.9-0.3,9.7-0.6,14.5-0.9c9.6-0.6,19.3-1.2,29.2-1.9
		c2.3-0.1,4.7-0.3,7.1-0.4c1.2-0.1,2.4-0.1,3.6-0.2c1.1-0.1,2.2,0.2,3.1,0.7c0.5,0.2,1,0.6,1.4,0.9c0.4,0.4,0.8,0.8,1.2,1.3
		c0.9,0.9,2,1.7,3.1,2.4c2.3,1.3,5.1,1.8,7.8,1.4c2.8-0.4,5.4-1.7,7.4-3.7c0.2-0.2,0.5-0.5,0.7-0.8s0.4-0.4,0.6-0.6
		c0.4-0.4,0.9-0.7,1.5-1c1.1-0.5,2.2-0.8,3.4-0.6c5.3,0.3,10.6,0.5,15.9,0.8c10.6,0.6,21.1,1.1,31.7,1.7l7.9,0.4l4,0.2
		c0.2,0,0.3,0,0.5,0c0.3,0,0.5-0.1,0.7-0.1c0.4-0.1,0.9-0.4,1.2-0.7c0.3-0.3,0.6-0.8,0.7-1.2c0.1-0.2,0.1-0.5,0.1-0.7v-0.5
		c0-5.3-0.1-10.6-0.1-15.9c0-10.6,0.3-21.2,0.3-31.7c0-5.1-0.1-12.9-0.2-27c0-4.4-0.1-8.9-0.1-13.4l0-0.8l0-0.4c0-0.2,0-0.4-0.1-0.6
		c0-0.1,0-0.1,0-0.1l0,0l0-0.1L267-6.5c-0.1-0.1-0.1-0.3-0.2-0.4c-0.2-0.2-0.4-0.4-0.6-0.6c-0.2-0.2-0.4-0.3-0.6-0.4
		c-0.3-0.1-0.4-0.1-0.6-0.2c-0.4-0.1-0.7-0.2-1-0.3C263.3-8.5,262.9-8.6,262.9-8.4z"/>
</g>
</svg>
